<mxfile host="65bd71144e">
    <diagram id="OlzCh-IqJkTf2HyGTNnp" name="Page-1">
        <mxGraphModel dx="3721" dy="1034" grid="1" gridSize="10" guides="1" tooltips="1" connect="1" arrows="1" fold="1" page="1" pageScale="1" pageWidth="850" pageHeight="1100" math="0" shadow="0">
            <root>
                <mxCell id="0"/>
                <mxCell id="1" parent="0"/>
                <mxCell id="qSxPUbyXWgn4yMtCygqy-690" value="&lt;div style=&quot;font-family: Menlo, Monaco, &amp;quot;Courier New&amp;quot;, monospace; line-height: 18px;&quot;&gt;&lt;div style=&quot;line-height: 18px;&quot;&gt;&lt;div style=&quot;line-height: 18px;&quot;&gt;&lt;div style=&quot;line-height: 18px;&quot;&gt;&lt;div style=&quot;line-height: 18px;&quot;&gt;userKeyServiceImpl&lt;/div&gt;&lt;/div&gt;&lt;/div&gt;&lt;/div&gt;&lt;/div&gt;" style="shape=process;whiteSpace=wrap;html=1;backgroundOutline=1;verticalAlign=top;align=left;size=0.02631578947368421;fillColor=none;" parent="1" vertex="1">
                    <mxGeometry x="800" y="280" width="970" height="590" as="geometry"/>
                </mxCell>
                <mxCell id="qSxPUbyXWgn4yMtCygqy-183" value="Creación de un Usuario por parte del ROLE_ADMIN y del ROLE_USER" style="swimlane;labelBackgroundColor=none;fontFamily=Helvetica;fontSize=14;fillColor=#d5e8d4;strokeColor=#82b366;" parent="1" vertex="1">
                    <mxGeometry x="-1640" y="160" width="1800" height="1430" as="geometry"/>
                </mxCell>
                <mxCell id="qSxPUbyXWgn4yMtCygqy-198" value="UserService" style="shape=process;whiteSpace=wrap;html=1;backgroundOutline=1;labelBackgroundColor=none;fontFamily=Helvetica;fontSize=14;fontColor=#000000;fillColor=none;verticalAlign=top;align=left;size=0.05;" parent="qSxPUbyXWgn4yMtCygqy-183" vertex="1">
                    <mxGeometry x="40" y="140" width="470" height="940" as="geometry"/>
                </mxCell>
                <mxCell id="qSxPUbyXWgn4yMtCygqy-199" value="registerUser" style="shape=process;whiteSpace=wrap;html=1;backgroundOutline=1;labelBackgroundColor=none;fontFamily=Helvetica;fontSize=14;fillColor=none;verticalAlign=top;align=left;size=0.07142857142857142;strokeColor=#0000CC;strokeWidth=2;" parent="qSxPUbyXWgn4yMtCygqy-183" vertex="1">
                    <mxGeometry x="100" y="200" width="350" height="850" as="geometry"/>
                </mxCell>
                <mxCell id="qSxPUbyXWgn4yMtCygqy-184" value="&lt;div style=&quot;font-family: Menlo, Monaco, &amp;quot;Courier New&amp;quot;, monospace; font-size: 12px; line-height: 18px;&quot;&gt;&lt;span style=&quot;background-color: rgb(102, 255, 102);&quot;&gt;AdminUserController&lt;/span&gt;&lt;/div&gt;&lt;div style=&quot;font-family: Menlo, Monaco, &amp;quot;Courier New&amp;quot;, monospace; font-size: 12px; line-height: 18px;&quot;&gt;&lt;span style=&quot;background-color: rgb(102, 255, 102);&quot;&gt;PostMapping(&quot;/register&quot;)&lt;/span&gt;&lt;/div&gt;" style="shape=process;whiteSpace=wrap;html=1;backgroundOutline=1;labelBackgroundColor=none;fontFamily=Helvetica;fontSize=14;fontColor=#000000;fillColor=none;size=0.046511627906976744;verticalAlign=top;align=left;" parent="qSxPUbyXWgn4yMtCygqy-183" vertex="1">
                    <mxGeometry x="750" y="130" width="330" height="380" as="geometry"/>
                </mxCell>
                <mxCell id="qSxPUbyXWgn4yMtCygqy-207" style="edgeStyle=orthogonalEdgeStyle;html=1;entryX=0;entryY=0.5;entryDx=0;entryDy=0;fontFamily=Helvetica;fontSize=14;fontColor=#000000;" parent="qSxPUbyXWgn4yMtCygqy-183" source="qSxPUbyXWgn4yMtCygqy-185" target="qSxPUbyXWgn4yMtCygqy-191" edge="1">
                    <mxGeometry relative="1" as="geometry"/>
                </mxCell>
                <mxCell id="qSxPUbyXWgn4yMtCygqy-211" style="edgeStyle=orthogonalEdgeStyle;html=1;entryX=0.5;entryY=0;entryDx=0;entryDy=0;fontFamily=Helvetica;fontSize=14;fontColor=#000000;" parent="qSxPUbyXWgn4yMtCygqy-183" source="qSxPUbyXWgn4yMtCygqy-185" target="qSxPUbyXWgn4yMtCygqy-186" edge="1">
                    <mxGeometry relative="1" as="geometry"/>
                </mxCell>
                <mxCell id="qSxPUbyXWgn4yMtCygqy-185" value="valida los datos &lt;br&gt;de la solicitud" style="rounded=1;whiteSpace=wrap;html=1;labelBackgroundColor=none;fontFamily=Helvetica;fontSize=14;fontColor=#000000;fillColor=none;" parent="qSxPUbyXWgn4yMtCygqy-183" vertex="1">
                    <mxGeometry x="820" y="190" width="180" height="60" as="geometry"/>
                </mxCell>
                <mxCell id="qSxPUbyXWgn4yMtCygqy-208" style="edgeStyle=orthogonalEdgeStyle;html=1;entryX=0;entryY=0.5;entryDx=0;entryDy=0;fontFamily=Helvetica;fontSize=14;fontColor=#000000;" parent="qSxPUbyXWgn4yMtCygqy-183" source="qSxPUbyXWgn4yMtCygqy-186" target="qSxPUbyXWgn4yMtCygqy-192" edge="1">
                    <mxGeometry relative="1" as="geometry"/>
                </mxCell>
                <mxCell id="qSxPUbyXWgn4yMtCygqy-212" style="edgeStyle=orthogonalEdgeStyle;html=1;entryX=0.5;entryY=0;entryDx=0;entryDy=0;fontFamily=Helvetica;fontSize=14;fontColor=#000000;" parent="qSxPUbyXWgn4yMtCygqy-183" source="qSxPUbyXWgn4yMtCygqy-186" target="qSxPUbyXWgn4yMtCygqy-187" edge="1">
                    <mxGeometry relative="1" as="geometry">
                        <mxPoint x="690" y="380" as="targetPoint"/>
                    </mxGeometry>
                </mxCell>
                <mxCell id="qSxPUbyXWgn4yMtCygqy-186" value="Mapea el DTO a &lt;br&gt;la entidad User" style="rounded=1;whiteSpace=wrap;html=1;labelBackgroundColor=none;fontFamily=Helvetica;fontSize=14;fontColor=#000000;fillColor=none;" parent="qSxPUbyXWgn4yMtCygqy-183" vertex="1">
                    <mxGeometry x="820" y="279" width="180" height="60" as="geometry"/>
                </mxCell>
                <mxCell id="qSxPUbyXWgn4yMtCygqy-491" style="edgeStyle=orthogonalEdgeStyle;html=1;entryX=0.5;entryY=0;entryDx=0;entryDy=0;fontFamily=Helvetica;fontSize=14;fontColor=#000000;endArrow=classic;endFill=1;" parent="qSxPUbyXWgn4yMtCygqy-183" source="qSxPUbyXWgn4yMtCygqy-187" target="qSxPUbyXWgn4yMtCygqy-490" edge="1">
                    <mxGeometry relative="1" as="geometry"/>
                </mxCell>
                <mxCell id="qSxPUbyXWgn4yMtCygqy-517" style="edgeStyle=orthogonalEdgeStyle;html=1;entryX=1.004;entryY=0.125;entryDx=0;entryDy=0;entryPerimeter=0;fontFamily=Helvetica;fontSize=14;fontColor=#000000;endArrow=classic;endFill=1;strokeColor=#CC0000;strokeWidth=2;" parent="qSxPUbyXWgn4yMtCygqy-183" source="qSxPUbyXWgn4yMtCygqy-187" target="qSxPUbyXWgn4yMtCygqy-199" edge="1">
                    <mxGeometry relative="1" as="geometry">
                        <Array as="points">
                            <mxPoint x="690" y="400"/>
                            <mxPoint x="690" y="306"/>
                        </Array>
                    </mxGeometry>
                </mxCell>
                <mxCell id="qSxPUbyXWgn4yMtCygqy-187" value="Envía a procesar solicitud" style="rounded=1;whiteSpace=wrap;html=1;labelBackgroundColor=none;fontFamily=Helvetica;fontSize=14;fontColor=#000000;fillColor=none;" parent="qSxPUbyXWgn4yMtCygqy-183" vertex="1">
                    <mxGeometry x="819" y="380" width="180" height="40" as="geometry"/>
                </mxCell>
                <mxCell id="qSxPUbyXWgn4yMtCygqy-494" style="edgeStyle=orthogonalEdgeStyle;html=1;entryX=0.5;entryY=0;entryDx=0;entryDy=0;fontFamily=Helvetica;fontSize=14;fontColor=#000000;endArrow=classic;endFill=1;" parent="qSxPUbyXWgn4yMtCygqy-183" source="qSxPUbyXWgn4yMtCygqy-188" target="qSxPUbyXWgn4yMtCygqy-202" edge="1">
                    <mxGeometry relative="1" as="geometry"/>
                </mxCell>
                <mxCell id="qSxPUbyXWgn4yMtCygqy-495" style="edgeStyle=orthogonalEdgeStyle;html=1;entryX=0.5;entryY=1;entryDx=0;entryDy=0;fontFamily=Helvetica;fontSize=14;fontColor=#000000;endArrow=classic;endFill=1;" parent="qSxPUbyXWgn4yMtCygqy-183" source="qSxPUbyXWgn4yMtCygqy-188" target="qSxPUbyXWgn4yMtCygqy-223" edge="1">
                    <mxGeometry relative="1" as="geometry"/>
                </mxCell>
                <mxCell id="qSxPUbyXWgn4yMtCygqy-188" value="Genera el objeto&lt;br&gt;userKey" style="rounded=1;whiteSpace=wrap;html=1;labelBackgroundColor=none;fontFamily=Helvetica;fontSize=14;fontColor=#000000;fillColor=none;" parent="qSxPUbyXWgn4yMtCygqy-183" vertex="1">
                    <mxGeometry x="157.75" y="687.5" width="222.25" height="60" as="geometry"/>
                </mxCell>
                <mxCell id="qSxPUbyXWgn4yMtCygqy-191" value="userValidationService" style="rounded=1;whiteSpace=wrap;html=1;labelBackgroundColor=none;fontFamily=Helvetica;fontSize=14;fontColor=#000000;fillColor=none;" parent="qSxPUbyXWgn4yMtCygqy-183" vertex="1">
                    <mxGeometry x="1150" y="190" width="180" height="60" as="geometry"/>
                </mxCell>
                <mxCell id="qSxPUbyXWgn4yMtCygqy-192" value="UserMapper" style="rounded=1;whiteSpace=wrap;html=1;labelBackgroundColor=none;fontFamily=Helvetica;fontSize=14;fontColor=#000000;fillColor=none;" parent="qSxPUbyXWgn4yMtCygqy-183" vertex="1">
                    <mxGeometry x="1150" y="279" width="180" height="60" as="geometry"/>
                </mxCell>
                <mxCell id="qSxPUbyXWgn4yMtCygqy-196" value="RamdonKeyGenerator" style="rounded=1;whiteSpace=wrap;html=1;labelBackgroundColor=none;fontFamily=Helvetica;fontSize=14;fontColor=#000000;fillColor=none;" parent="qSxPUbyXWgn4yMtCygqy-183" vertex="1">
                    <mxGeometry x="1090" y="555" width="180" height="45" as="geometry"/>
                </mxCell>
                <mxCell id="qSxPUbyXWgn4yMtCygqy-498" style="edgeStyle=orthogonalEdgeStyle;html=1;entryX=0.5;entryY=0;entryDx=0;entryDy=0;fontFamily=Helvetica;fontSize=14;fontColor=#000000;endArrow=classic;endFill=1;" parent="qSxPUbyXWgn4yMtCygqy-183" source="qSxPUbyXWgn4yMtCygqy-200" target="qSxPUbyXWgn4yMtCygqy-496" edge="1">
                    <mxGeometry relative="1" as="geometry"/>
                </mxCell>
                <mxCell id="qSxPUbyXWgn4yMtCygqy-499" style="edgeStyle=orthogonalEdgeStyle;html=1;entryX=0;entryY=0.5;entryDx=0;entryDy=0;fontFamily=Helvetica;fontSize=14;fontColor=#000000;endArrow=classic;endFill=1;" parent="qSxPUbyXWgn4yMtCygqy-183" source="qSxPUbyXWgn4yMtCygqy-200" target="qSxPUbyXWgn4yMtCygqy-205" edge="1">
                    <mxGeometry relative="1" as="geometry">
                        <Array as="points">
                            <mxPoint x="530" y="260"/>
                            <mxPoint x="530" y="710"/>
                        </Array>
                    </mxGeometry>
                </mxCell>
                <mxCell id="qSxPUbyXWgn4yMtCygqy-200" value="Verifica si el email existen" style="rounded=1;whiteSpace=wrap;html=1;labelBackgroundColor=none;fontFamily=Helvetica;fontSize=14;fontColor=#000000;fillColor=none;" parent="qSxPUbyXWgn4yMtCygqy-183" vertex="1">
                    <mxGeometry x="157.75" y="240" width="222.25" height="40" as="geometry"/>
                </mxCell>
                <mxCell id="qSxPUbyXWgn4yMtCygqy-476" style="edgeStyle=orthogonalEdgeStyle;html=1;entryX=0.5;entryY=0;entryDx=0;entryDy=0;fontFamily=Helvetica;fontSize=14;fontColor=#000000;endArrow=classic;endFill=1;" parent="qSxPUbyXWgn4yMtCygqy-183" source="qSxPUbyXWgn4yMtCygqy-201" target="qSxPUbyXWgn4yMtCygqy-188" edge="1">
                    <mxGeometry relative="1" as="geometry"/>
                </mxCell>
                <mxCell id="qSxPUbyXWgn4yMtCygqy-519" style="edgeStyle=orthogonalEdgeStyle;html=1;strokeColor=#000000;strokeWidth=1;fontFamily=Helvetica;fontSize=14;fontColor=#000000;endArrow=classic;endFill=1;" parent="qSxPUbyXWgn4yMtCygqy-183" source="qSxPUbyXWgn4yMtCygqy-201" target="qSxPUbyXWgn4yMtCygqy-196" edge="1">
                    <mxGeometry relative="1" as="geometry">
                        <Array as="points">
                            <mxPoint x="670" y="630"/>
                            <mxPoint x="670" y="578"/>
                        </Array>
                    </mxGeometry>
                </mxCell>
                <mxCell id="qSxPUbyXWgn4yMtCygqy-201" value="Encripta la contraseña&lt;br&gt;y la carga al usuario" style="rounded=1;whiteSpace=wrap;html=1;labelBackgroundColor=none;fontFamily=Helvetica;fontSize=14;fontColor=#000000;fillColor=none;" parent="qSxPUbyXWgn4yMtCygqy-183" vertex="1">
                    <mxGeometry x="157.75" y="600" width="222.25" height="60" as="geometry"/>
                </mxCell>
                <mxCell id="qSxPUbyXWgn4yMtCygqy-484" style="edgeStyle=orthogonalEdgeStyle;html=1;entryX=0.5;entryY=0;entryDx=0;entryDy=0;fontFamily=Helvetica;fontSize=14;fontColor=#000000;endArrow=classic;endFill=1;" parent="qSxPUbyXWgn4yMtCygqy-183" source="qSxPUbyXWgn4yMtCygqy-202" target="qSxPUbyXWgn4yMtCygqy-479" edge="1">
                    <mxGeometry relative="1" as="geometry"/>
                </mxCell>
                <mxCell id="qSxPUbyXWgn4yMtCygqy-501" style="edgeStyle=orthogonalEdgeStyle;html=1;entryX=0;entryY=0.5;entryDx=0;entryDy=0;fontFamily=Helvetica;fontSize=14;fontColor=#000000;endArrow=classic;endFill=1;" parent="qSxPUbyXWgn4yMtCygqy-183" source="qSxPUbyXWgn4yMtCygqy-202" target="qSxPUbyXWgn4yMtCygqy-204" edge="1">
                    <mxGeometry relative="1" as="geometry"/>
                </mxCell>
                <mxCell id="qSxPUbyXWgn4yMtCygqy-202" value="Crea el User y el&lt;br&gt;UserKey en la BD y agregar&lt;br&gt;el id al userKey" style="rounded=1;whiteSpace=wrap;html=1;labelBackgroundColor=none;fontFamily=Helvetica;fontSize=14;fontColor=#000000;fillColor=none;" parent="qSxPUbyXWgn4yMtCygqy-183" vertex="1">
                    <mxGeometry x="157.75" y="780" width="222.25" height="60" as="geometry"/>
                </mxCell>
                <mxCell id="qSxPUbyXWgn4yMtCygqy-203" value="userRepository" style="shape=process;whiteSpace=wrap;html=1;backgroundOutline=1;labelBackgroundColor=none;fontFamily=Helvetica;fontSize=14;fontColor=#000000;fillColor=none;verticalAlign=top;align=left;size=0.05747126436781609;" parent="qSxPUbyXWgn4yMtCygqy-183" vertex="1">
                    <mxGeometry x="680" y="640" width="435" height="290" as="geometry"/>
                </mxCell>
                <mxCell id="qSxPUbyXWgn4yMtCygqy-502" style="edgeStyle=orthogonalEdgeStyle;html=1;fontFamily=Helvetica;fontSize=14;fontColor=#000000;endArrow=classic;endFill=1;" parent="qSxPUbyXWgn4yMtCygqy-183" source="qSxPUbyXWgn4yMtCygqy-204" target="qSxPUbyXWgn4yMtCygqy-334" edge="1">
                    <mxGeometry relative="1" as="geometry">
                        <Array as="points">
                            <mxPoint x="1140" y="870"/>
                            <mxPoint x="1140" y="885"/>
                        </Array>
                    </mxGeometry>
                </mxCell>
                <mxCell id="qSxPUbyXWgn4yMtCygqy-503" value="Store Procedure" style="edgeLabel;html=1;align=center;verticalAlign=middle;resizable=0;points=[];fontSize=14;fontFamily=Helvetica;fontColor=#000000;" parent="qSxPUbyXWgn4yMtCygqy-502" vertex="1" connectable="0">
                    <mxGeometry x="0.1979" relative="1" as="geometry">
                        <mxPoint as="offset"/>
                    </mxGeometry>
                </mxCell>
                <mxCell id="qSxPUbyXWgn4yMtCygqy-204" value="spCreateUserAndKey" style="rounded=1;whiteSpace=wrap;html=1;labelBackgroundColor=none;fontFamily=Helvetica;fontSize=14;fillColor=#d5e8d4;strokeColor=#82b366;" parent="qSxPUbyXWgn4yMtCygqy-183" vertex="1">
                    <mxGeometry x="775" y="850" width="240" height="40" as="geometry"/>
                </mxCell>
                <mxCell id="qSxPUbyXWgn4yMtCygqy-505" style="edgeStyle=orthogonalEdgeStyle;html=1;entryX=0.5;entryY=0;entryDx=0;entryDy=0;entryPerimeter=0;fontFamily=Helvetica;fontSize=14;fontColor=#000000;endArrow=classic;endFill=1;" parent="qSxPUbyXWgn4yMtCygqy-183" source="qSxPUbyXWgn4yMtCygqy-205" target="qSxPUbyXWgn4yMtCygqy-334" edge="1">
                    <mxGeometry relative="1" as="geometry">
                        <Array as="points">
                            <mxPoint x="1170" y="710"/>
                            <mxPoint x="1170" y="770"/>
                            <mxPoint x="1495" y="770"/>
                        </Array>
                    </mxGeometry>
                </mxCell>
                <mxCell id="qSxPUbyXWgn4yMtCygqy-205" value="findByMail" style="rounded=1;whiteSpace=wrap;html=1;labelBackgroundColor=none;fontFamily=Helvetica;fontSize=14;fillColor=#d5e8d4;strokeColor=#82b366;" parent="qSxPUbyXWgn4yMtCygqy-183" vertex="1">
                    <mxGeometry x="775" y="690" width="240" height="40" as="geometry"/>
                </mxCell>
                <mxCell id="qSxPUbyXWgn4yMtCygqy-504" style="edgeStyle=orthogonalEdgeStyle;html=1;fontFamily=Helvetica;fontSize=14;fontColor=#000000;endArrow=classic;endFill=1;entryX=0;entryY=0;entryDx=0;entryDy=50;entryPerimeter=0;" parent="qSxPUbyXWgn4yMtCygqy-183" source="qSxPUbyXWgn4yMtCygqy-206" target="qSxPUbyXWgn4yMtCygqy-334" edge="1">
                    <mxGeometry relative="1" as="geometry">
                        <mxPoint x="1050" y="1067" as="targetPoint"/>
                        <Array as="points">
                            <mxPoint x="1140" y="790"/>
                            <mxPoint x="1140" y="850"/>
                        </Array>
                    </mxGeometry>
                </mxCell>
                <mxCell id="qSxPUbyXWgn4yMtCygqy-206" value="findByNickname" style="rounded=1;whiteSpace=wrap;html=1;labelBackgroundColor=none;fontFamily=Helvetica;fontSize=14;fillColor=#d5e8d4;strokeColor=#82b366;" parent="qSxPUbyXWgn4yMtCygqy-183" vertex="1">
                    <mxGeometry x="775" y="770" width="240" height="40" as="geometry"/>
                </mxCell>
                <mxCell id="qSxPUbyXWgn4yMtCygqy-223" value="generateKey" style="rounded=1;whiteSpace=wrap;html=1;labelBackgroundColor=none;fontFamily=Helvetica;fontSize=14;fontColor=#000000;fillColor=none;" parent="qSxPUbyXWgn4yMtCygqy-183" vertex="1">
                    <mxGeometry x="540" y="210" width="180" height="60" as="geometry"/>
                </mxCell>
                <mxCell id="qSxPUbyXWgn4yMtCygqy-272" value="MailService" style="shape=process;whiteSpace=wrap;html=1;backgroundOutline=1;labelBackgroundColor=none;fontFamily=Helvetica;fontSize=14;fontColor=#000000;fillColor=none;verticalAlign=top;align=left;size=0.05714285714285714;" parent="qSxPUbyXWgn4yMtCygqy-183" vertex="1">
                    <mxGeometry x="198.25" y="1130" width="470" height="250" as="geometry"/>
                </mxCell>
                <mxCell id="qSxPUbyXWgn4yMtCygqy-588" style="edgeStyle=orthogonalEdgeStyle;html=1;entryX=0;entryY=0.5;entryDx=0;entryDy=0;strokeColor=#000000;strokeWidth=1;fontFamily=Helvetica;fontSize=20;fontColor=#000000;endArrow=classic;endFill=1;" parent="qSxPUbyXWgn4yMtCygqy-183" source="qSxPUbyXWgn4yMtCygqy-273" target="qSxPUbyXWgn4yMtCygqy-585" edge="1">
                    <mxGeometry relative="1" as="geometry">
                        <Array as="points">
                            <mxPoint x="720" y="1210"/>
                            <mxPoint x="720" y="1111"/>
                        </Array>
                    </mxGeometry>
                </mxCell>
                <mxCell id="qSxPUbyXWgn4yMtCygqy-273" value="&lt;div style=&quot;font-family: Menlo, Monaco, &amp;quot;Courier New&amp;quot;, monospace; line-height: 18px;&quot;&gt;&lt;font style=&quot;font-size: 14px;&quot;&gt;sendActivationAccountWithTemporaryPassword&lt;/font&gt;&lt;/div&gt;" style="rounded=1;whiteSpace=wrap;html=1;labelBackgroundColor=none;fontFamily=Helvetica;fontSize=14;fillColor=#fff2cc;strokeColor=#d6b656;" parent="qSxPUbyXWgn4yMtCygqy-183" vertex="1">
                    <mxGeometry x="248.25" y="1180" width="370" height="60" as="geometry"/>
                </mxCell>
                <mxCell id="qSxPUbyXWgn4yMtCygqy-279" style="edgeStyle=orthogonalEdgeStyle;html=1;entryX=0.5;entryY=0;entryDx=0;entryDy=0;fontFamily=Helvetica;fontSize=14;fontColor=#000000;" parent="qSxPUbyXWgn4yMtCygqy-183" source="qSxPUbyXWgn4yMtCygqy-278" target="qSxPUbyXWgn4yMtCygqy-184" edge="1">
                    <mxGeometry relative="1" as="geometry"/>
                </mxCell>
                <mxCell id="qSxPUbyXWgn4yMtCygqy-278" value="Inicio" style="ellipse;whiteSpace=wrap;html=1;labelBackgroundColor=none;fontFamily=Helvetica;fontSize=14;fontColor=#000000;fillColor=none;" parent="qSxPUbyXWgn4yMtCygqy-183" vertex="1">
                    <mxGeometry x="860" y="50" width="110" height="50" as="geometry"/>
                </mxCell>
                <mxCell id="qSxPUbyXWgn4yMtCygqy-334" value="DB" style="shape=cylinder3;whiteSpace=wrap;html=1;boundedLbl=1;backgroundOutline=1;size=15;labelBackgroundColor=none;fontFamily=Helvetica;fontSize=14;fontColor=#000000;fillColor=none;" parent="qSxPUbyXWgn4yMtCygqy-183" vertex="1">
                    <mxGeometry x="1350" y="800" width="290" height="150" as="geometry"/>
                </mxCell>
                <mxCell id="qSxPUbyXWgn4yMtCygqy-466" value="Si" style="edgeStyle=orthogonalEdgeStyle;html=1;entryX=0.75;entryY=0;entryDx=0;entryDy=0;fontFamily=Helvetica;fontSize=14;fontColor=#000000;" parent="qSxPUbyXWgn4yMtCygqy-183" source="qSxPUbyXWgn4yMtCygqy-464" target="qSxPUbyXWgn4yMtCygqy-465" edge="1">
                    <mxGeometry x="0.0015" relative="1" as="geometry">
                        <Array as="points">
                            <mxPoint x="352.75" y="431"/>
                        </Array>
                        <mxPoint as="offset"/>
                    </mxGeometry>
                </mxCell>
                <mxCell id="qSxPUbyXWgn4yMtCygqy-471" style="edgeStyle=orthogonalEdgeStyle;html=1;entryX=0;entryY=0.25;entryDx=0;entryDy=0;fontFamily=Helvetica;fontSize=14;fontColor=#000000;endArrow=none;endFill=0;" parent="qSxPUbyXWgn4yMtCygqy-183" source="qSxPUbyXWgn4yMtCygqy-464" target="qSxPUbyXWgn4yMtCygqy-469" edge="1">
                    <mxGeometry relative="1" as="geometry">
                        <Array as="points">
                            <mxPoint x="157.75" y="431"/>
                        </Array>
                    </mxGeometry>
                </mxCell>
                <mxCell id="qSxPUbyXWgn4yMtCygqy-464" value="&lt;p&gt;&lt;font style=&quot;font-size: 14px;&quot;&gt;isAdmin&lt;/font&gt;&lt;/p&gt;" style="rhombus;whiteSpace=wrap;html=1;labelBackgroundColor=none;fontFamily=Helvetica;fontSize=35;fontColor=#000000;fillColor=none;verticalAlign=middle;" parent="qSxPUbyXWgn4yMtCygqy-183" vertex="1">
                    <mxGeometry x="198.25" y="400" width="101" height="63" as="geometry"/>
                </mxCell>
                <mxCell id="qSxPUbyXWgn4yMtCygqy-470" style="edgeStyle=orthogonalEdgeStyle;html=1;entryX=1;entryY=0;entryDx=0;entryDy=0;fontFamily=Helvetica;fontSize=14;fontColor=#000000;endArrow=none;endFill=0;" parent="qSxPUbyXWgn4yMtCygqy-183" source="qSxPUbyXWgn4yMtCygqy-465" target="qSxPUbyXWgn4yMtCygqy-469" edge="1">
                    <mxGeometry relative="1" as="geometry"/>
                </mxCell>
                <mxCell id="qSxPUbyXWgn4yMtCygqy-465" value="Agregar un password temporal al User" style="rounded=1;whiteSpace=wrap;html=1;labelBackgroundColor=none;fontFamily=Helvetica;fontSize=14;fontColor=#000000;fillColor=none;" parent="qSxPUbyXWgn4yMtCygqy-183" vertex="1">
                    <mxGeometry x="217.75" y="483" width="180" height="60" as="geometry"/>
                </mxCell>
                <mxCell id="qSxPUbyXWgn4yMtCygqy-475" style="edgeStyle=orthogonalEdgeStyle;html=1;entryX=0.5;entryY=0;entryDx=0;entryDy=0;fontFamily=Helvetica;fontSize=14;fontColor=#000000;endArrow=classic;endFill=1;" parent="qSxPUbyXWgn4yMtCygqy-183" source="qSxPUbyXWgn4yMtCygqy-469" target="qSxPUbyXWgn4yMtCygqy-201" edge="1">
                    <mxGeometry relative="1" as="geometry"/>
                </mxCell>
                <mxCell id="qSxPUbyXWgn4yMtCygqy-469" value="" style="rounded=0;whiteSpace=wrap;html=1;labelBackgroundColor=none;fontFamily=Helvetica;fontSize=14;fontColor=#000000;fillColor=none;" parent="qSxPUbyXWgn4yMtCygqy-183" vertex="1">
                    <mxGeometry x="157.75" y="560.5" width="150" height="1" as="geometry"/>
                </mxCell>
                <mxCell id="qSxPUbyXWgn4yMtCygqy-486" style="edgeStyle=orthogonalEdgeStyle;html=1;entryX=0.25;entryY=0;entryDx=0;entryDy=0;fontFamily=Helvetica;fontSize=14;fontColor=#000000;endArrow=classic;endFill=1;" parent="qSxPUbyXWgn4yMtCygqy-183" source="qSxPUbyXWgn4yMtCygqy-479" target="qSxPUbyXWgn4yMtCygqy-485" edge="1">
                    <mxGeometry relative="1" as="geometry">
                        <Array as="points">
                            <mxPoint x="165.75" y="901"/>
                        </Array>
                    </mxGeometry>
                </mxCell>
                <mxCell id="qSxPUbyXWgn4yMtCygqy-479" value="&lt;p&gt;&lt;font style=&quot;font-size: 14px;&quot;&gt;isAdmin&lt;/font&gt;&lt;/p&gt;" style="rhombus;whiteSpace=wrap;html=1;labelBackgroundColor=none;fontFamily=Helvetica;fontSize=35;fontColor=#000000;fillColor=none;verticalAlign=middle;" parent="qSxPUbyXWgn4yMtCygqy-183" vertex="1">
                    <mxGeometry x="218.25" y="869" width="101" height="63" as="geometry"/>
                </mxCell>
                <mxCell id="qSxPUbyXWgn4yMtCygqy-508" style="edgeStyle=orthogonalEdgeStyle;html=1;entryX=0.823;entryY=0.018;entryDx=0;entryDy=0;entryPerimeter=0;fontFamily=Helvetica;fontSize=14;fontColor=#000000;endArrow=classic;endFill=1;" parent="qSxPUbyXWgn4yMtCygqy-183" source="qSxPUbyXWgn4yMtCygqy-481" target="qSxPUbyXWgn4yMtCygqy-273" edge="1">
                    <mxGeometry relative="1" as="geometry">
                        <Array as="points">
                            <mxPoint x="553" y="976"/>
                        </Array>
                    </mxGeometry>
                </mxCell>
                <mxCell id="qSxPUbyXWgn4yMtCygqy-481" value="Envía correo con clave temporal" style="rounded=1;whiteSpace=wrap;html=1;labelBackgroundColor=none;fontFamily=Helvetica;fontSize=14;fontColor=#000000;fillColor=none;" parent="qSxPUbyXWgn4yMtCygqy-183" vertex="1">
                    <mxGeometry x="298.25" y="952" width="118" height="48" as="geometry"/>
                </mxCell>
                <mxCell id="qSxPUbyXWgn4yMtCygqy-477" value="Si" style="edgeStyle=orthogonalEdgeStyle;html=1;entryX=0.5;entryY=0;entryDx=0;entryDy=0;fontFamily=Helvetica;fontSize=14;fontColor=#000000;" parent="qSxPUbyXWgn4yMtCygqy-183" source="qSxPUbyXWgn4yMtCygqy-479" target="qSxPUbyXWgn4yMtCygqy-481" edge="1">
                    <mxGeometry x="0.0015" relative="1" as="geometry">
                        <Array as="points">
                            <mxPoint x="357.75" y="901"/>
                            <mxPoint x="357.75" y="930"/>
                            <mxPoint x="357.75" y="930"/>
                        </Array>
                        <mxPoint as="offset"/>
                    </mxGeometry>
                </mxCell>
                <mxCell id="qSxPUbyXWgn4yMtCygqy-482" value="" style="rounded=0;whiteSpace=wrap;html=1;labelBackgroundColor=none;fontFamily=Helvetica;fontSize=14;fontColor=#000000;fillColor=none;" parent="qSxPUbyXWgn4yMtCygqy-183" vertex="1">
                    <mxGeometry x="218.75" y="1020" width="88" height="1" as="geometry"/>
                </mxCell>
                <mxCell id="qSxPUbyXWgn4yMtCygqy-480" style="edgeStyle=orthogonalEdgeStyle;html=1;entryX=1;entryY=0;entryDx=0;entryDy=0;fontFamily=Helvetica;fontSize=14;fontColor=#000000;endArrow=none;endFill=0;" parent="qSxPUbyXWgn4yMtCygqy-183" source="qSxPUbyXWgn4yMtCygqy-481" target="qSxPUbyXWgn4yMtCygqy-482" edge="1">
                    <mxGeometry relative="1" as="geometry">
                        <Array as="points">
                            <mxPoint x="357.75" y="1020"/>
                        </Array>
                    </mxGeometry>
                </mxCell>
                <mxCell id="qSxPUbyXWgn4yMtCygqy-487" style="edgeStyle=orthogonalEdgeStyle;html=1;entryX=0;entryY=0;entryDx=0;entryDy=0;fontFamily=Helvetica;fontSize=14;fontColor=#000000;endArrow=none;endFill=0;" parent="qSxPUbyXWgn4yMtCygqy-183" source="qSxPUbyXWgn4yMtCygqy-485" target="qSxPUbyXWgn4yMtCygqy-482" edge="1">
                    <mxGeometry relative="1" as="geometry">
                        <Array as="points">
                            <mxPoint x="194.75" y="1020"/>
                        </Array>
                    </mxGeometry>
                </mxCell>
                <mxCell id="qSxPUbyXWgn4yMtCygqy-507" style="edgeStyle=orthogonalEdgeStyle;html=1;entryX=0;entryY=0.5;entryDx=0;entryDy=0;fontFamily=Helvetica;fontSize=14;fontColor=#000000;endArrow=classic;endFill=1;" parent="qSxPUbyXWgn4yMtCygqy-183" source="qSxPUbyXWgn4yMtCygqy-485" target="qSxPUbyXWgn4yMtCygqy-506" edge="1">
                    <mxGeometry relative="1" as="geometry">
                        <Array as="points">
                            <mxPoint x="80" y="976"/>
                            <mxPoint x="80" y="1320"/>
                        </Array>
                    </mxGeometry>
                </mxCell>
                <mxCell id="qSxPUbyXWgn4yMtCygqy-485" value="Envía correo de activación" style="rounded=1;whiteSpace=wrap;html=1;labelBackgroundColor=none;fontFamily=Helvetica;fontSize=14;fontColor=#000000;fillColor=none;" parent="qSxPUbyXWgn4yMtCygqy-183" vertex="1">
                    <mxGeometry x="135.75" y="952" width="118" height="48" as="geometry"/>
                </mxCell>
                <mxCell id="qSxPUbyXWgn4yMtCygqy-490" value="Respuesta HTTP" style="rounded=1;whiteSpace=wrap;html=1;labelBackgroundColor=none;fontFamily=Helvetica;fontSize=14;fontColor=#000000;fillColor=none;" parent="qSxPUbyXWgn4yMtCygqy-183" vertex="1">
                    <mxGeometry x="819" y="456.5" width="180" height="33.5" as="geometry"/>
                </mxCell>
                <mxCell id="qSxPUbyXWgn4yMtCygqy-497" style="edgeStyle=orthogonalEdgeStyle;html=1;fontFamily=Helvetica;fontSize=14;fontColor=#000000;endArrow=classic;endFill=1;" parent="qSxPUbyXWgn4yMtCygqy-183" source="qSxPUbyXWgn4yMtCygqy-496" target="qSxPUbyXWgn4yMtCygqy-464" edge="1">
                    <mxGeometry relative="1" as="geometry"/>
                </mxCell>
                <mxCell id="qSxPUbyXWgn4yMtCygqy-500" style="edgeStyle=orthogonalEdgeStyle;html=1;entryX=0;entryY=0.5;entryDx=0;entryDy=0;fontFamily=Helvetica;fontSize=14;fontColor=#000000;endArrow=classic;endFill=1;" parent="qSxPUbyXWgn4yMtCygqy-183" source="qSxPUbyXWgn4yMtCygqy-496" target="qSxPUbyXWgn4yMtCygqy-206" edge="1">
                    <mxGeometry relative="1" as="geometry"/>
                </mxCell>
                <mxCell id="qSxPUbyXWgn4yMtCygqy-496" value="Verifica si el nickname existen" style="rounded=1;whiteSpace=wrap;html=1;labelBackgroundColor=none;fontFamily=Helvetica;fontSize=14;fontColor=#000000;fillColor=none;" parent="qSxPUbyXWgn4yMtCygqy-183" vertex="1">
                    <mxGeometry x="157.75" y="320" width="222.25" height="40" as="geometry"/>
                </mxCell>
                <mxCell id="qSxPUbyXWgn4yMtCygqy-587" style="edgeStyle=orthogonalEdgeStyle;html=1;entryX=0;entryY=0.5;entryDx=0;entryDy=0;strokeColor=#000000;strokeWidth=1;fontFamily=Helvetica;fontSize=20;fontColor=#000000;endArrow=classic;endFill=1;" parent="qSxPUbyXWgn4yMtCygqy-183" source="qSxPUbyXWgn4yMtCygqy-506" target="qSxPUbyXWgn4yMtCygqy-586" edge="1">
                    <mxGeometry relative="1" as="geometry"/>
                </mxCell>
                <mxCell id="qSxPUbyXWgn4yMtCygqy-506" value="&lt;div style=&quot;font-family: Menlo, Monaco, &amp;quot;Courier New&amp;quot;, monospace; line-height: 18px;&quot;&gt;&lt;font style=&quot;font-size: 14px;&quot;&gt;sendActivationAccount&lt;/font&gt;&lt;/div&gt;" style="rounded=1;whiteSpace=wrap;html=1;labelBackgroundColor=none;fontFamily=Helvetica;fontSize=14;fillColor=#fff2cc;strokeColor=#d6b656;" parent="qSxPUbyXWgn4yMtCygqy-183" vertex="1">
                    <mxGeometry x="248.25" y="1290" width="370" height="60" as="geometry"/>
                </mxCell>
                <mxCell id="qSxPUbyXWgn4yMtCygqy-275" value="Fin" style="ellipse;whiteSpace=wrap;html=1;labelBackgroundColor=none;fontFamily=Helvetica;fontSize=14;fontColor=#000000;fillColor=none;" parent="qSxPUbyXWgn4yMtCygqy-183" vertex="1">
                    <mxGeometry x="1240" y="680" width="105" height="50" as="geometry"/>
                </mxCell>
                <mxCell id="qSxPUbyXWgn4yMtCygqy-276" style="edgeStyle=orthogonalEdgeStyle;html=1;entryX=0.5;entryY=0;entryDx=0;entryDy=0;fontFamily=Helvetica;fontSize=14;fontColor=#000000;exitX=0.5;exitY=1;exitDx=0;exitDy=0;" parent="qSxPUbyXWgn4yMtCygqy-183" source="qSxPUbyXWgn4yMtCygqy-184" target="qSxPUbyXWgn4yMtCygqy-275" edge="1">
                    <mxGeometry relative="1" as="geometry">
                        <Array as="points">
                            <mxPoint x="915" y="620"/>
                            <mxPoint x="1293" y="620"/>
                        </Array>
                    </mxGeometry>
                </mxCell>
                <mxCell id="qSxPUbyXWgn4yMtCygqy-510" value="&lt;div style=&quot;font-family: Menlo, Monaco, &amp;quot;Courier New&amp;quot;, monospace; font-size: 12px; line-height: 18px;&quot;&gt;&lt;span style=&quot;background-color: rgb(102, 255, 102);&quot;&gt;AuthController&lt;/span&gt;&lt;/div&gt;&lt;div style=&quot;font-family: Menlo, Monaco, &amp;quot;Courier New&amp;quot;, monospace; font-size: 12px; line-height: 18px;&quot;&gt;&lt;span style=&quot;background-color: rgb(102, 255, 102);&quot;&gt;PostMapping(&quot;/register&quot;)&lt;/span&gt;&lt;/div&gt;" style="shape=process;whiteSpace=wrap;html=1;backgroundOutline=1;labelBackgroundColor=none;fontFamily=Helvetica;fontSize=14;fontColor=#000000;fillColor=none;size=0.046511627906976744;verticalAlign=top;align=left;" parent="qSxPUbyXWgn4yMtCygqy-183" vertex="1">
                    <mxGeometry x="1400" y="130" width="330" height="380" as="geometry"/>
                </mxCell>
                <mxCell id="qSxPUbyXWgn4yMtCygqy-516" style="edgeStyle=orthogonalEdgeStyle;html=1;entryX=1;entryY=0.5;entryDx=0;entryDy=0;fontFamily=Helvetica;fontSize=14;fontColor=#000000;endArrow=classic;endFill=1;" parent="qSxPUbyXWgn4yMtCygqy-183" source="qSxPUbyXWgn4yMtCygqy-511" target="qSxPUbyXWgn4yMtCygqy-191" edge="1">
                    <mxGeometry relative="1" as="geometry"/>
                </mxCell>
                <mxCell id="qSxPUbyXWgn4yMtCygqy-511" value="valida los datos &lt;br&gt;de la solicitud" style="rounded=1;whiteSpace=wrap;html=1;labelBackgroundColor=none;fontFamily=Helvetica;fontSize=14;fontColor=#000000;fillColor=none;" parent="qSxPUbyXWgn4yMtCygqy-183" vertex="1">
                    <mxGeometry x="1470" y="190" width="180" height="60" as="geometry"/>
                </mxCell>
                <mxCell id="qSxPUbyXWgn4yMtCygqy-515" style="edgeStyle=orthogonalEdgeStyle;html=1;entryX=1;entryY=0.5;entryDx=0;entryDy=0;fontFamily=Helvetica;fontSize=14;fontColor=#000000;endArrow=classic;endFill=1;" parent="qSxPUbyXWgn4yMtCygqy-183" source="qSxPUbyXWgn4yMtCygqy-512" target="qSxPUbyXWgn4yMtCygqy-192" edge="1">
                    <mxGeometry relative="1" as="geometry"/>
                </mxCell>
                <mxCell id="qSxPUbyXWgn4yMtCygqy-512" value="Mapea el DTO a &lt;br&gt;la entidad User" style="rounded=1;whiteSpace=wrap;html=1;labelBackgroundColor=none;fontFamily=Helvetica;fontSize=14;fontColor=#000000;fillColor=none;" parent="qSxPUbyXWgn4yMtCygqy-183" vertex="1">
                    <mxGeometry x="1470" y="279" width="180" height="60" as="geometry"/>
                </mxCell>
                <mxCell id="qSxPUbyXWgn4yMtCygqy-518" style="edgeStyle=orthogonalEdgeStyle;html=1;entryX=0.995;entryY=0.389;entryDx=0;entryDy=0;entryPerimeter=0;fontFamily=Helvetica;fontSize=14;fontColor=#000000;endArrow=classic;endFill=1;strokeColor=#CC0000;strokeWidth=2;" parent="qSxPUbyXWgn4yMtCygqy-183" source="qSxPUbyXWgn4yMtCygqy-513" target="qSxPUbyXWgn4yMtCygqy-199" edge="1">
                    <mxGeometry relative="1" as="geometry">
                        <Array as="points">
                            <mxPoint x="1210" y="400"/>
                            <mxPoint x="1210" y="531"/>
                        </Array>
                    </mxGeometry>
                </mxCell>
                <mxCell id="qSxPUbyXWgn4yMtCygqy-513" value="Envía a procesar solicitud" style="rounded=1;whiteSpace=wrap;html=1;labelBackgroundColor=none;fontFamily=Helvetica;fontSize=14;fontColor=#000000;fillColor=none;" parent="qSxPUbyXWgn4yMtCygqy-183" vertex="1">
                    <mxGeometry x="1469" y="380" width="180" height="40" as="geometry"/>
                </mxCell>
                <mxCell id="qSxPUbyXWgn4yMtCygqy-514" value="Respuesta HTTP" style="rounded=1;whiteSpace=wrap;html=1;labelBackgroundColor=none;fontFamily=Helvetica;fontSize=14;fontColor=#000000;fillColor=none;" parent="qSxPUbyXWgn4yMtCygqy-183" vertex="1">
                    <mxGeometry x="1469" y="456.5" width="180" height="33.5" as="geometry"/>
                </mxCell>
                <mxCell id="qSxPUbyXWgn4yMtCygqy-585" value="&lt;h1 style=&quot;font-size: 20px;&quot;&gt;&lt;font style=&quot;font-size: 20px;&quot;&gt;Contenido del email sendActivationAccountWithTemporaryPassword&lt;/font&gt;&lt;/h1&gt;&lt;p style=&quot;font-size: 20px;&quot;&gt;El correo al recibir el parámetro isNew = true, contruye la url con el id del user en la tabla user_key y el key_value, y forman &quot;&lt;span style=&quot;background-color: rgb(102, 255, 102);&quot;&gt;api/public/activate-account-with-temporary-password/id/key_value&lt;/span&gt;&quot;, esta ruta lo debe llevar a un formulario que contiene dos campos: uno para ingresar la clave temporal que recibió por correo y la otra para ingresar su nueva contraseña&lt;/p&gt;" style="text;html=1;strokeColor=none;fillColor=none;spacing=5;spacingTop=-20;whiteSpace=wrap;overflow=hidden;rounded=0;labelBackgroundColor=none;strokeWidth=1;fontFamily=Helvetica;fontSize=14;fontColor=#000000;" parent="qSxPUbyXWgn4yMtCygqy-183" vertex="1">
                    <mxGeometry x="790" y="1030" width="930" height="162" as="geometry"/>
                </mxCell>
                <mxCell id="qSxPUbyXWgn4yMtCygqy-586" value="&lt;h1 style=&quot;font-size: 20px;&quot;&gt;&lt;font style=&quot;font-size: 20px;&quot;&gt;Contenido del email sendActivationAccount&lt;/font&gt;&lt;/h1&gt;&lt;p style=&quot;font-size: 20px;&quot;&gt;El correo al recibir el parámetro isNew = true, contruye la url con &quot;api/public/activate-accont&quot;, el id del user en la tabla user_key y el key_value, y forman &quot;&lt;span style=&quot;background-color: rgb(102, 255, 102);&quot;&gt;api/public/activate-account/id/key_value&lt;/span&gt;&quot;, al dar clic en este link envía la solicitud a la APIRest y activa su cuenta, no requiere enviar ningún dato adicional.&lt;/p&gt;" style="text;html=1;strokeColor=none;fillColor=none;spacing=5;spacingTop=-20;whiteSpace=wrap;overflow=hidden;rounded=0;labelBackgroundColor=none;strokeWidth=1;fontFamily=Helvetica;fontSize=14;fontColor=#000000;" parent="qSxPUbyXWgn4yMtCygqy-183" vertex="1">
                    <mxGeometry x="790" y="1245" width="930" height="150" as="geometry"/>
                </mxCell>
                <mxCell id="qSxPUbyXWgn4yMtCygqy-64" value="Reenvío de activación por correo al usuario por ROLE_ADMIN" style="swimlane;startSize=20;horizontal=1;containerType=tree;labelBackgroundColor=none;fillColor=#d5e8d4;fontSize=14;strokeColor=#82b366;" parent="1" vertex="1">
                    <mxGeometry x="-1640" y="1800" width="1330" height="1180" as="geometry">
                        <mxRectangle x="-220" y="940" width="120" height="30" as="alternateBounds"/>
                    </mxGeometry>
                </mxCell>
                <mxCell id="qSxPUbyXWgn4yMtCygqy-74" value="&lt;div style=&quot;font-family: Menlo, Monaco, &amp;quot;Courier New&amp;quot;, monospace; line-height: 18px;&quot;&gt;&lt;div style=&quot;line-height: 18px;&quot;&gt;userService&lt;/div&gt;&lt;/div&gt;" style="shape=process;whiteSpace=wrap;html=1;backgroundOutline=1;verticalAlign=top;align=left;fillColor=none;size=0.02631578947368421;" parent="qSxPUbyXWgn4yMtCygqy-64" vertex="1">
                    <mxGeometry x="360" y="240" width="760" height="540" as="geometry"/>
                </mxCell>
                <mxCell id="qSxPUbyXWgn4yMtCygqy-524" value="resentActivation" style="shape=process;whiteSpace=wrap;html=1;backgroundOutline=1;labelBackgroundColor=none;strokeColor=#0000CC;strokeWidth=2;fontFamily=Helvetica;fontSize=14;fontColor=#000000;fillColor=none;verticalAlign=top;align=left;size=0.05555555555555555;" parent="qSxPUbyXWgn4yMtCygqy-64" vertex="1">
                    <mxGeometry x="400" y="280" width="360" height="480" as="geometry"/>
                </mxCell>
                <mxCell id="qSxPUbyXWgn4yMtCygqy-70" value="inicio" style="strokeWidth=2;html=1;shape=mxgraph.flowchart.start_1;whiteSpace=wrap;" parent="qSxPUbyXWgn4yMtCygqy-64" vertex="1">
                    <mxGeometry x="105" y="40" width="110" height="40" as="geometry"/>
                </mxCell>
                <mxCell id="qSxPUbyXWgn4yMtCygqy-551" style="edgeStyle=orthogonalEdgeStyle;html=1;entryX=0.5;entryY=0;entryDx=0;entryDy=0;entryPerimeter=0;strokeColor=#000000;strokeWidth=1;fontFamily=Helvetica;fontSize=14;fontColor=#000000;endArrow=classic;endFill=1;" parent="qSxPUbyXWgn4yMtCygqy-64" source="qSxPUbyXWgn4yMtCygqy-71" target="qSxPUbyXWgn4yMtCygqy-111" edge="1">
                    <mxGeometry relative="1" as="geometry"/>
                </mxCell>
                <mxCell id="qSxPUbyXWgn4yMtCygqy-71" value="&lt;span style=&quot;background-color: rgb(102, 255, 102);&quot;&gt;&lt;span style=&quot;border-color: var(--border-color);&quot;&gt;AdminUserController&lt;/span&gt;&lt;br style=&quot;border-color: var(--border-color);&quot;&gt;&lt;/span&gt;&lt;div style=&quot;border-color: var(--border-color);&quot;&gt;&lt;span style=&quot;background-color: rgb(102, 255, 102);&quot;&gt;&lt;span style=&quot;border-color: var(--border-color);&quot;&gt;PostMapping(&lt;/span&gt;&lt;span style=&quot;border-color: var(--border-color);&quot;&gt;&quot;/resend-activation&quot;&lt;/span&gt;&lt;span style=&quot;border-color: var(--border-color);&quot;&gt;)&lt;/span&gt;&lt;/span&gt;&lt;/div&gt;" style="shape=process;whiteSpace=wrap;html=1;backgroundOutline=1;verticalAlign=top;align=left;size=0.03333333333333333;fillColor=none;" parent="qSxPUbyXWgn4yMtCygqy-64" vertex="1">
                    <mxGeometry x="40" y="120" width="240" height="190" as="geometry"/>
                </mxCell>
                <mxCell id="qSxPUbyXWgn4yMtCygqy-69" style="edgeStyle=orthogonalEdgeStyle;html=1;entryX=0.5;entryY=0;entryDx=0;entryDy=0;fontColor=#000000;" parent="qSxPUbyXWgn4yMtCygqy-64" source="qSxPUbyXWgn4yMtCygqy-70" target="qSxPUbyXWgn4yMtCygqy-71" edge="1">
                    <mxGeometry relative="1" as="geometry"/>
                </mxCell>
                <mxCell id="qSxPUbyXWgn4yMtCygqy-76" value="&lt;div style=&quot;font-family: Menlo, Monaco, &amp;quot;Courier New&amp;quot;, monospace; line-height: 18px;&quot;&gt;&lt;div style=&quot;line-height: 18px;&quot;&gt;&lt;div style=&quot;line-height: 18px;&quot;&gt;&lt;div style=&quot;line-height: 18px;&quot;&gt;mailService&lt;/div&gt;&lt;/div&gt;&lt;/div&gt;&lt;/div&gt;" style="shape=process;whiteSpace=wrap;html=1;backgroundOutline=1;verticalAlign=top;align=left;fillColor=none;size=0.046511627906976744;" parent="qSxPUbyXWgn4yMtCygqy-64" vertex="1">
                    <mxGeometry x="40" y="830" width="460" height="90" as="geometry"/>
                </mxCell>
                <mxCell id="qSxPUbyXWgn4yMtCygqy-530" style="edgeStyle=orthogonalEdgeStyle;html=1;entryX=0;entryY=0.5;entryDx=0;entryDy=0;strokeColor=#000000;strokeWidth=1;fontFamily=Helvetica;fontSize=14;fontColor=#0000CC;endArrow=classic;endFill=1;" parent="qSxPUbyXWgn4yMtCygqy-64" source="qSxPUbyXWgn4yMtCygqy-79" target="qSxPUbyXWgn4yMtCygqy-529" edge="1">
                    <mxGeometry relative="1" as="geometry"/>
                </mxCell>
                <mxCell id="qSxPUbyXWgn4yMtCygqy-79" value="Valida el formato del email" style="rounded=1;whiteSpace=wrap;html=1;absoluteArcSize=1;arcSize=14;strokeWidth=1;labelBackgroundColor=none;fontColor=#000000;" parent="qSxPUbyXWgn4yMtCygqy-64" vertex="1">
                    <mxGeometry x="95" y="170" width="130" height="40" as="geometry"/>
                </mxCell>
                <mxCell id="qSxPUbyXWgn4yMtCygqy-531" style="edgeStyle=orthogonalEdgeStyle;html=1;entryX=0;entryY=0.25;entryDx=0;entryDy=0;strokeColor=#000000;strokeWidth=1;fontFamily=Helvetica;fontSize=14;fontColor=#0000CC;endArrow=classic;endFill=1;" parent="qSxPUbyXWgn4yMtCygqy-64" source="qSxPUbyXWgn4yMtCygqy-82" target="qSxPUbyXWgn4yMtCygqy-524" edge="1">
                    <mxGeometry relative="1" as="geometry"/>
                </mxCell>
                <mxCell id="23" style="edgeStyle=orthogonalEdgeStyle;html=1;entryX=0.25;entryY=0;entryDx=0;entryDy=0;startArrow=none;startFill=0;endArrow=classic;endFill=1;" edge="1" parent="qSxPUbyXWgn4yMtCygqy-64" source="qSxPUbyXWgn4yMtCygqy-82" target="qSxPUbyXWgn4yMtCygqy-110">
                    <mxGeometry relative="1" as="geometry">
                        <Array as="points">
                            <mxPoint x="20" y="260"/>
                            <mxPoint x="20" y="570"/>
                            <mxPoint x="183" y="570"/>
                        </Array>
                    </mxGeometry>
                </mxCell>
                <mxCell id="qSxPUbyXWgn4yMtCygqy-82" value="envia a procesar la solicitud" style="rounded=1;whiteSpace=wrap;html=1;absoluteArcSize=1;arcSize=14;strokeWidth=1;labelBackgroundColor=none;fontColor=#000000;" parent="qSxPUbyXWgn4yMtCygqy-64" vertex="1">
                    <mxGeometry x="95" y="240" width="130" height="40" as="geometry"/>
                </mxCell>
                <mxCell id="qSxPUbyXWgn4yMtCygqy-78" style="html=1;entryX=0.5;entryY=0;entryDx=0;entryDy=0;fontColor=#000000;elbow=vertical;" parent="qSxPUbyXWgn4yMtCygqy-64" source="qSxPUbyXWgn4yMtCygqy-79" target="qSxPUbyXWgn4yMtCygqy-82" edge="1">
                    <mxGeometry relative="1" as="geometry"/>
                </mxCell>
                <mxCell id="qSxPUbyXWgn4yMtCygqy-535" style="edgeStyle=orthogonalEdgeStyle;html=1;entryX=1;entryY=0.5;entryDx=0;entryDy=0;strokeColor=#000000;strokeWidth=1;fontFamily=Helvetica;fontSize=14;fontColor=#0000CC;endArrow=classic;endFill=1;" parent="qSxPUbyXWgn4yMtCygqy-64" source="qSxPUbyXWgn4yMtCygqy-100" target="qSxPUbyXWgn4yMtCygqy-534" edge="1">
                    <mxGeometry relative="1" as="geometry">
                        <Array as="points">
                            <mxPoint x="310" y="395"/>
                            <mxPoint x="310" y="455"/>
                        </Array>
                    </mxGeometry>
                </mxCell>
                <mxCell id="qSxPUbyXWgn4yMtCygqy-538" style="edgeStyle=orthogonalEdgeStyle;html=1;entryX=0.5;entryY=0;entryDx=0;entryDy=0;strokeColor=#000000;strokeWidth=1;fontFamily=Helvetica;fontSize=14;fontColor=#0000CC;endArrow=classic;endFill=1;" parent="qSxPUbyXWgn4yMtCygqy-64" source="qSxPUbyXWgn4yMtCygqy-100" target="qSxPUbyXWgn4yMtCygqy-525" edge="1">
                    <mxGeometry relative="1" as="geometry"/>
                </mxCell>
                <mxCell id="qSxPUbyXWgn4yMtCygqy-100" value="&lt;div style=&quot;line-height: 18px;&quot;&gt;crear un password temporal&lt;/div&gt;" style="rounded=1;whiteSpace=wrap;html=1;absoluteArcSize=1;arcSize=14;strokeWidth=1;labelBackgroundColor=none;fontColor=#000000;" parent="qSxPUbyXWgn4yMtCygqy-64" vertex="1">
                    <mxGeometry x="460" y="380" width="240" height="30" as="geometry"/>
                </mxCell>
                <mxCell id="qSxPUbyXWgn4yMtCygqy-536" style="edgeStyle=orthogonalEdgeStyle;html=1;entryX=0.5;entryY=0;entryDx=0;entryDy=0;strokeColor=#000000;strokeWidth=1;fontFamily=Helvetica;fontSize=14;fontColor=#0000CC;endArrow=classic;endFill=1;" parent="qSxPUbyXWgn4yMtCygqy-64" source="qSxPUbyXWgn4yMtCygqy-101" target="qSxPUbyXWgn4yMtCygqy-100" edge="1">
                    <mxGeometry relative="1" as="geometry"/>
                </mxCell>
                <mxCell id="qSxPUbyXWgn4yMtCygqy-537" style="edgeStyle=orthogonalEdgeStyle;html=1;entryX=0;entryY=0.5;entryDx=0;entryDy=0;strokeColor=#000000;strokeWidth=1;fontFamily=Helvetica;fontSize=14;fontColor=#0000CC;endArrow=classic;endFill=1;" parent="qSxPUbyXWgn4yMtCygqy-64" source="qSxPUbyXWgn4yMtCygqy-101" target="qSxPUbyXWgn4yMtCygqy-532" edge="1">
                    <mxGeometry relative="1" as="geometry"/>
                </mxCell>
                <mxCell id="qSxPUbyXWgn4yMtCygqy-101" value="&lt;div style=&quot;line-height: 18px;&quot;&gt;&lt;div style=&quot;line-height: 18px;&quot;&gt;Carga del user por su correo&lt;/div&gt;&lt;/div&gt;" style="rounded=1;whiteSpace=wrap;html=1;absoluteArcSize=1;arcSize=14;strokeWidth=1;labelBackgroundColor=none;fontColor=#000000;" parent="qSxPUbyXWgn4yMtCygqy-64" vertex="1">
                    <mxGeometry x="460" y="320" width="240" height="30" as="geometry"/>
                </mxCell>
                <mxCell id="qSxPUbyXWgn4yMtCygqy-105" value="Data&lt;br&gt;Base" style="shape=cylinder;whiteSpace=wrap;html=1;boundedLbl=1;backgroundOutline=1;labelBackgroundColor=none;fontColor=#000000;fillColor=none;" parent="qSxPUbyXWgn4yMtCygqy-64" vertex="1">
                    <mxGeometry x="1020" y="870" width="230" height="150" as="geometry"/>
                </mxCell>
                <mxCell id="qSxPUbyXWgn4yMtCygqy-590" style="edgeStyle=orthogonalEdgeStyle;html=1;strokeColor=#000000;strokeWidth=1;fontFamily=Helvetica;fontSize=20;fontColor=#000000;endArrow=classic;endFill=1;entryX=0.345;entryY=0.006;entryDx=0;entryDy=0;entryPerimeter=0;" parent="qSxPUbyXWgn4yMtCygqy-64" source="qSxPUbyXWgn4yMtCygqy-110" target="qSxPUbyXWgn4yMtCygqy-589" edge="1">
                    <mxGeometry relative="1" as="geometry"/>
                </mxCell>
                <mxCell id="qSxPUbyXWgn4yMtCygqy-110" value="&lt;div style=&quot;font-family: Menlo, Monaco, &amp;quot;Courier New&amp;quot;, monospace; line-height: 18px;&quot;&gt;&lt;div style=&quot;line-height: 18px;&quot;&gt;&lt;font style=&quot;font-size: 14px;&quot;&gt;sendActivationAccountWithTemporaryPassword&lt;/font&gt;&lt;/div&gt;&lt;/div&gt;" style="rounded=1;whiteSpace=wrap;html=1;absoluteArcSize=1;arcSize=14;strokeWidth=1;labelBackgroundColor=none;fillColor=#fff2cc;strokeColor=#d6b656;" parent="qSxPUbyXWgn4yMtCygqy-64" vertex="1">
                    <mxGeometry x="90" y="860" width="370" height="40" as="geometry"/>
                </mxCell>
                <mxCell id="qSxPUbyXWgn4yMtCygqy-111" value="fin" style="strokeWidth=2;html=1;shape=mxgraph.flowchart.start_1;whiteSpace=wrap;fillColor=none;" parent="qSxPUbyXWgn4yMtCygqy-64" vertex="1">
                    <mxGeometry x="105" y="350" width="110" height="40" as="geometry"/>
                </mxCell>
                <mxCell id="qSxPUbyXWgn4yMtCygqy-539" style="edgeStyle=orthogonalEdgeStyle;html=1;entryX=0;entryY=0.5;entryDx=0;entryDy=0;strokeColor=#000000;strokeWidth=1;fontFamily=Helvetica;fontSize=14;fontColor=#0000CC;endArrow=classic;endFill=1;" parent="qSxPUbyXWgn4yMtCygqy-64" source="qSxPUbyXWgn4yMtCygqy-525" target="qSxPUbyXWgn4yMtCygqy-533" edge="1">
                    <mxGeometry relative="1" as="geometry"/>
                </mxCell>
                <mxCell id="qSxPUbyXWgn4yMtCygqy-540" style="edgeStyle=orthogonalEdgeStyle;html=1;entryX=0.5;entryY=0;entryDx=0;entryDy=0;strokeColor=#000000;strokeWidth=1;fontFamily=Helvetica;fontSize=14;fontColor=#0000CC;endArrow=classic;endFill=1;" parent="qSxPUbyXWgn4yMtCygqy-64" source="qSxPUbyXWgn4yMtCygqy-525" target="qSxPUbyXWgn4yMtCygqy-526" edge="1">
                    <mxGeometry relative="1" as="geometry"/>
                </mxCell>
                <mxCell id="qSxPUbyXWgn4yMtCygqy-525" value="&lt;div style=&quot;line-height: 18px;&quot;&gt;se encripta y se agrega al usuario&lt;/div&gt;" style="rounded=1;whiteSpace=wrap;html=1;absoluteArcSize=1;arcSize=14;strokeWidth=1;labelBackgroundColor=none;fontColor=#000000;" parent="qSxPUbyXWgn4yMtCygqy-64" vertex="1">
                    <mxGeometry x="460" y="440" width="240" height="30" as="geometry"/>
                </mxCell>
                <mxCell id="qSxPUbyXWgn4yMtCygqy-542" style="edgeStyle=orthogonalEdgeStyle;html=1;entryX=1;entryY=0.5;entryDx=0;entryDy=0;strokeColor=#000000;strokeWidth=1;fontFamily=Helvetica;fontSize=14;fontColor=#0000CC;endArrow=classic;endFill=1;" parent="qSxPUbyXWgn4yMtCygqy-64" source="qSxPUbyXWgn4yMtCygqy-526" target="qSxPUbyXWgn4yMtCygqy-541" edge="1">
                    <mxGeometry relative="1" as="geometry"/>
                </mxCell>
                <mxCell id="qSxPUbyXWgn4yMtCygqy-543" style="edgeStyle=orthogonalEdgeStyle;html=1;entryX=0.5;entryY=0;entryDx=0;entryDy=0;strokeColor=#000000;strokeWidth=1;fontFamily=Helvetica;fontSize=14;fontColor=#0000CC;endArrow=classic;endFill=1;" parent="qSxPUbyXWgn4yMtCygqy-64" source="qSxPUbyXWgn4yMtCygqy-526" target="qSxPUbyXWgn4yMtCygqy-527" edge="1">
                    <mxGeometry relative="1" as="geometry"/>
                </mxCell>
                <mxCell id="qSxPUbyXWgn4yMtCygqy-526" value="&lt;div style=&quot;line-height: 18px;&quot;&gt;Generar un user_key&lt;/div&gt;" style="rounded=1;whiteSpace=wrap;html=1;absoluteArcSize=1;arcSize=14;strokeWidth=1;labelBackgroundColor=none;fontColor=#000000;" parent="qSxPUbyXWgn4yMtCygqy-64" vertex="1">
                    <mxGeometry x="460" y="500" width="240" height="30" as="geometry"/>
                </mxCell>
                <mxCell id="qSxPUbyXWgn4yMtCygqy-545" style="edgeStyle=orthogonalEdgeStyle;html=1;entryX=0;entryY=0.5;entryDx=0;entryDy=0;strokeColor=#000000;strokeWidth=1;fontFamily=Helvetica;fontSize=14;fontColor=#0000CC;endArrow=classic;endFill=1;" parent="qSxPUbyXWgn4yMtCygqy-64" source="qSxPUbyXWgn4yMtCygqy-527" target="qSxPUbyXWgn4yMtCygqy-544" edge="1">
                    <mxGeometry relative="1" as="geometry"/>
                </mxCell>
                <mxCell id="qSxPUbyXWgn4yMtCygqy-546" style="edgeStyle=orthogonalEdgeStyle;html=1;strokeColor=#000000;strokeWidth=1;fontFamily=Helvetica;fontSize=14;fontColor=#0000CC;endArrow=classic;endFill=1;" parent="qSxPUbyXWgn4yMtCygqy-64" source="qSxPUbyXWgn4yMtCygqy-527" target="qSxPUbyXWgn4yMtCygqy-528" edge="1">
                    <mxGeometry relative="1" as="geometry"/>
                </mxCell>
                <mxCell id="qSxPUbyXWgn4yMtCygqy-527" value="&lt;div style=&quot;line-height: 18px;&quot;&gt;registro en la BD el password temporal y el nuevo registro del user_key&lt;/div&gt;" style="rounded=1;whiteSpace=wrap;html=1;absoluteArcSize=1;arcSize=14;strokeWidth=1;labelBackgroundColor=none;fontColor=#000000;" parent="qSxPUbyXWgn4yMtCygqy-64" vertex="1">
                    <mxGeometry x="460" y="560" width="240" height="40" as="geometry"/>
                </mxCell>
                <mxCell id="26" style="edgeStyle=orthogonalEdgeStyle;html=1;entryX=0.5;entryY=0;entryDx=0;entryDy=0;startArrow=none;startFill=0;endArrow=classic;endFill=1;" edge="1" parent="qSxPUbyXWgn4yMtCygqy-64" source="qSxPUbyXWgn4yMtCygqy-528" target="25">
                    <mxGeometry relative="1" as="geometry"/>
                </mxCell>
                <mxCell id="qSxPUbyXWgn4yMtCygqy-528" value="&lt;div style=&quot;line-height: 18px;&quot;&gt;cargar el id al userKey&lt;/div&gt;" style="rounded=1;whiteSpace=wrap;html=1;absoluteArcSize=1;arcSize=14;strokeWidth=1;labelBackgroundColor=none;fontColor=#000000;" parent="qSxPUbyXWgn4yMtCygqy-64" vertex="1">
                    <mxGeometry x="460" y="630" width="240" height="40" as="geometry"/>
                </mxCell>
                <mxCell id="qSxPUbyXWgn4yMtCygqy-529" value="userValidationService" style="rounded=1;whiteSpace=wrap;html=1;labelBackgroundColor=none;fontFamily=Helvetica;fontSize=14;fontColor=#000000;fillColor=none;" parent="qSxPUbyXWgn4yMtCygqy-64" vertex="1">
                    <mxGeometry x="460" y="120" width="280" height="40" as="geometry"/>
                </mxCell>
                <mxCell id="qSxPUbyXWgn4yMtCygqy-532" value="getUserByEmail" style="rounded=1;whiteSpace=wrap;html=1;labelBackgroundColor=none;fontFamily=Helvetica;fontSize=14;fontColor=#000000;fillColor=none;" parent="qSxPUbyXWgn4yMtCygqy-64" vertex="1">
                    <mxGeometry x="830" y="320" width="190" height="30" as="geometry"/>
                </mxCell>
                <mxCell id="qSxPUbyXWgn4yMtCygqy-533" value="encoderPassword" style="rounded=1;whiteSpace=wrap;html=1;labelBackgroundColor=none;fontFamily=Helvetica;fontSize=14;fontColor=#000000;fillColor=none;" parent="qSxPUbyXWgn4yMtCygqy-64" vertex="1">
                    <mxGeometry x="830" y="440" width="190" height="30" as="geometry"/>
                </mxCell>
                <mxCell id="qSxPUbyXWgn4yMtCygqy-534" value="RandomKeyGenerator" style="rounded=1;whiteSpace=wrap;html=1;labelBackgroundColor=none;fontFamily=Helvetica;fontSize=14;fontColor=#000000;fillColor=none;" parent="qSxPUbyXWgn4yMtCygqy-64" vertex="1">
                    <mxGeometry x="60" y="435" width="190" height="40" as="geometry"/>
                </mxCell>
                <mxCell id="qSxPUbyXWgn4yMtCygqy-541" value="generateKey" style="rounded=1;whiteSpace=wrap;html=1;labelBackgroundColor=none;fontFamily=Helvetica;fontSize=14;fontColor=#000000;fillColor=none;" parent="qSxPUbyXWgn4yMtCygqy-64" vertex="1">
                    <mxGeometry x="65" y="500" width="190" height="30" as="geometry"/>
                </mxCell>
                <mxCell id="qSxPUbyXWgn4yMtCygqy-549" style="edgeStyle=orthogonalEdgeStyle;html=1;entryX=1;entryY=0.5;entryDx=0;entryDy=0;strokeColor=#000000;strokeWidth=1;fontFamily=Helvetica;fontSize=14;fontColor=#000000;endArrow=classic;endFill=1;" parent="qSxPUbyXWgn4yMtCygqy-64" source="qSxPUbyXWgn4yMtCygqy-544" target="qSxPUbyXWgn4yMtCygqy-548" edge="1">
                    <mxGeometry relative="1" as="geometry">
                        <Array as="points">
                            <mxPoint x="950" y="810"/>
                            <mxPoint x="720" y="810"/>
                            <mxPoint x="720" y="900"/>
                        </Array>
                    </mxGeometry>
                </mxCell>
                <mxCell id="qSxPUbyXWgn4yMtCygqy-544" value="updatePasswordAndInsertUserKey" style="rounded=1;whiteSpace=wrap;html=1;labelBackgroundColor=none;fontFamily=Helvetica;fontSize=14;fontColor=#000000;fillColor=none;" parent="qSxPUbyXWgn4yMtCygqy-64" vertex="1">
                    <mxGeometry x="800" y="562.5" width="280" height="35" as="geometry"/>
                </mxCell>
                <mxCell id="qSxPUbyXWgn4yMtCygqy-547" value="userRepository" style="shape=process;whiteSpace=wrap;html=1;backgroundOutline=1;labelBackgroundColor=none;strokeColor=#000000;strokeWidth=1;fontFamily=Helvetica;fontSize=14;fontColor=#000000;fillColor=none;verticalAlign=top;align=left;size=0.058823529411764705;" parent="qSxPUbyXWgn4yMtCygqy-64" vertex="1">
                    <mxGeometry x="540" y="830" width="340" height="140" as="geometry"/>
                </mxCell>
                <mxCell id="qSxPUbyXWgn4yMtCygqy-552" style="edgeStyle=orthogonalEdgeStyle;html=1;entryX=0;entryY=0.5;entryDx=0;entryDy=0;strokeColor=#000000;strokeWidth=1;fontFamily=Helvetica;fontSize=14;fontColor=#000000;endArrow=classic;endFill=1;" parent="qSxPUbyXWgn4yMtCygqy-64" source="qSxPUbyXWgn4yMtCygqy-548" target="qSxPUbyXWgn4yMtCygqy-105" edge="1">
                    <mxGeometry relative="1" as="geometry">
                        <Array as="points">
                            <mxPoint x="890" y="900"/>
                            <mxPoint x="890" y="945"/>
                        </Array>
                    </mxGeometry>
                </mxCell>
                <mxCell id="qSxPUbyXWgn4yMtCygqy-553" value="Store procedure" style="edgeLabel;html=1;align=center;verticalAlign=middle;resizable=0;points=[];fontSize=14;fontFamily=Helvetica;fontColor=#000000;" parent="qSxPUbyXWgn4yMtCygqy-552" vertex="1" connectable="0">
                    <mxGeometry x="-0.5" y="1" relative="1" as="geometry">
                        <mxPoint x="59" y="-236" as="offset"/>
                    </mxGeometry>
                </mxCell>
                <mxCell id="qSxPUbyXWgn4yMtCygqy-548" value="sp_update_password_and_insert_key" style="rounded=1;whiteSpace=wrap;html=1;labelBackgroundColor=none;fontFamily=Helvetica;fontSize=14;fillColor=#d5e8d4;strokeColor=#82b366;" parent="qSxPUbyXWgn4yMtCygqy-64" vertex="1">
                    <mxGeometry x="580" y="880" width="260" height="40" as="geometry"/>
                </mxCell>
                <mxCell id="qSxPUbyXWgn4yMtCygqy-589" value="&lt;h1 style=&quot;font-size: 20px;&quot;&gt;&lt;font style=&quot;font-size: 20px;&quot;&gt;Contenido del email sendActivationAccountWithTemporaryPassword&lt;/font&gt;&lt;/h1&gt;&lt;p style=&quot;font-size: 20px;&quot;&gt;El correo al recibir el parámetro isNew = true, contruye la url con el id del user en la tabla user_key y el key_value, y forman &quot;&lt;span style=&quot;background-color: rgb(102, 255, 102);&quot;&gt;api/public/activate-account-with-temporary-password/id/key_value&lt;/span&gt;&quot;, esta ruta lo debe llevar a un formulario que contiene dos campos: uno para ingresar la clave temporal que recibió por correo y la otra para ingresar su nueva contraseña&lt;/p&gt;" style="text;html=1;strokeColor=none;fillColor=none;spacing=5;spacingTop=-20;whiteSpace=wrap;overflow=hidden;rounded=0;labelBackgroundColor=none;strokeWidth=1;fontFamily=Helvetica;fontSize=14;fontColor=#000000;" parent="qSxPUbyXWgn4yMtCygqy-64" vertex="1">
                    <mxGeometry x="20" y="1000" width="930" height="162" as="geometry"/>
                </mxCell>
                <mxCell id="25" value="&lt;div style=&quot;line-height: 18px;&quot;&gt;enviar correo con el link de la activiación&lt;/div&gt;&lt;div style=&quot;line-height: 18px;&quot;&gt;y la clave temporal que debe ingresar&lt;/div&gt;" style="rounded=1;whiteSpace=wrap;html=1;absoluteArcSize=1;arcSize=14;strokeWidth=1;labelBackgroundColor=none;fontColor=#000000;" vertex="1" parent="qSxPUbyXWgn4yMtCygqy-64">
                    <mxGeometry x="460" y="700" width="240" height="40" as="geometry"/>
                </mxCell>
                <mxCell id="qSxPUbyXWgn4yMtCygqy-112" value="Activición de cuenta" style="swimlane;startSize=20;horizontal=1;containerType=tree;labelBackgroundColor=none;fillColor=#d5e8d4;strokeColor=#82b366;fontSize=14;verticalAlign=middle;align=center;" parent="1" vertex="1">
                    <mxGeometry x="360" y="160" width="1540" height="1580" as="geometry">
                        <mxRectangle x="190" y="970" width="120" height="30" as="alternateBounds"/>
                    </mxGeometry>
                </mxCell>
                <mxCell id="qSxPUbyXWgn4yMtCygqy-119" value="&lt;div style=&quot;font-family: Menlo, Monaco, &amp;quot;Courier New&amp;quot;, monospace; line-height: 18px;&quot;&gt;&lt;div style=&quot;line-height: 18px;&quot;&gt;&lt;div style=&quot;line-height: 18px;&quot;&gt;&lt;div style=&quot;line-height: 18px;&quot;&gt;&lt;div style=&quot;line-height: 18px;&quot;&gt;activateAccount&lt;/div&gt;&lt;/div&gt;&lt;/div&gt;&lt;/div&gt;&lt;/div&gt;" style="shape=process;whiteSpace=wrap;html=1;backgroundOutline=1;verticalAlign=top;align=left;size=0.045454545454545456;fillColor=none;" parent="qSxPUbyXWgn4yMtCygqy-112" vertex="1">
                    <mxGeometry x="490" y="160" width="520" height="500" as="geometry"/>
                </mxCell>
                <mxCell id="qSxPUbyXWgn4yMtCygqy-113" value="inicio" style="strokeWidth=2;html=1;shape=mxgraph.flowchart.start_1;whiteSpace=wrap;" parent="qSxPUbyXWgn4yMtCygqy-112" vertex="1">
                    <mxGeometry x="145" y="40" width="110" height="40" as="geometry"/>
                </mxCell>
                <mxCell id="qSxPUbyXWgn4yMtCygqy-114" value="&lt;span style=&quot;background-color: rgb(102, 255, 102);&quot;&gt;&lt;span style=&quot;border-color: var(--border-color);&quot;&gt;PublicUserController&lt;/span&gt;&lt;br style=&quot;border-color: var(--border-color);&quot;&gt;&lt;/span&gt;&lt;div style=&quot;border-color: var(--border-color);&quot;&gt;&lt;span style=&quot;background-color: rgb(102, 255, 102);&quot;&gt;&lt;span style=&quot;border-color: var(--border-color);&quot;&gt;PostMapping(&quot;/activate-account/{id}/{keyValue}&quot;&lt;/span&gt;)&lt;/span&gt;&lt;/div&gt;" style="shape=process;whiteSpace=wrap;html=1;backgroundOutline=1;verticalAlign=top;align=left;size=0.03333333333333333;fillColor=none;" parent="qSxPUbyXWgn4yMtCygqy-112" vertex="1">
                    <mxGeometry x="40" y="120" width="320" height="250" as="geometry"/>
                </mxCell>
                <mxCell id="qSxPUbyXWgn4yMtCygqy-115" style="edgeStyle=orthogonalEdgeStyle;html=1;entryX=0.5;entryY=0;entryDx=0;entryDy=0;fontColor=#000000;" parent="qSxPUbyXWgn4yMtCygqy-112" source="qSxPUbyXWgn4yMtCygqy-113" target="qSxPUbyXWgn4yMtCygqy-114" edge="1">
                    <mxGeometry relative="1" as="geometry"/>
                </mxCell>
                <mxCell id="qSxPUbyXWgn4yMtCygqy-680" style="edgeStyle=orthogonalEdgeStyle;html=1;entryX=0;entryY=0.5;entryDx=0;entryDy=0;strokeColor=#000000;strokeWidth=1;fontFamily=Helvetica;fontSize=14;fontColor=#000000;endArrow=classic;endFill=1;" parent="qSxPUbyXWgn4yMtCygqy-112" source="qSxPUbyXWgn4yMtCygqy-122" target="qSxPUbyXWgn4yMtCygqy-685" edge="1">
                    <mxGeometry relative="1" as="geometry">
                        <Array as="points">
                            <mxPoint x="400" y="180"/>
                            <mxPoint x="400" y="70"/>
                        </Array>
                    </mxGeometry>
                </mxCell>
                <mxCell id="3" style="edgeStyle=none;html=1;entryX=0.5;entryY=0;entryDx=0;entryDy=0;" edge="1" parent="qSxPUbyXWgn4yMtCygqy-112" source="qSxPUbyXWgn4yMtCygqy-122" target="qSxPUbyXWgn4yMtCygqy-160">
                    <mxGeometry relative="1" as="geometry"/>
                </mxCell>
                <mxCell id="qSxPUbyXWgn4yMtCygqy-122" value="Validación de id y activiationKey" style="rounded=1;whiteSpace=wrap;html=1;absoluteArcSize=1;arcSize=14;strokeWidth=2;labelBackgroundColor=none;fontColor=#000000;" parent="qSxPUbyXWgn4yMtCygqy-112" vertex="1">
                    <mxGeometry x="80" y="170" width="240" height="40" as="geometry"/>
                </mxCell>
                <mxCell id="qSxPUbyXWgn4yMtCygqy-136" style="edgeStyle=orthogonalEdgeStyle;html=1;fontColor=#000000;entryX=0.5;entryY=0;entryDx=0;entryDy=0;entryPerimeter=0;exitX=0.5;exitY=1;exitDx=0;exitDy=0;" parent="qSxPUbyXWgn4yMtCygqy-112" source="qSxPUbyXWgn4yMtCygqy-114" target="qSxPUbyXWgn4yMtCygqy-155" edge="1">
                    <mxGeometry relative="1" as="geometry">
                        <mxPoint x="190" y="640" as="sourcePoint"/>
                        <Array as="points"/>
                    </mxGeometry>
                </mxCell>
                <mxCell id="qSxPUbyXWgn4yMtCygqy-143" value="&lt;div style=&quot;line-height: 18px;&quot;&gt;&lt;div style=&quot;line-height: 18px;&quot;&gt;&lt;div style=&quot;line-height: 18px;&quot;&gt;&lt;span style=&quot;font-family: Menlo, Monaco, &amp;quot;Courier New&amp;quot;, monospace;&quot;&gt;userKeyRepository&lt;/span&gt;&lt;br&gt;&lt;/div&gt;&lt;/div&gt;&lt;/div&gt;" style="shape=process;whiteSpace=wrap;html=1;backgroundOutline=1;verticalAlign=top;align=left;fillColor=none;size=0.05128205128205128;" parent="qSxPUbyXWgn4yMtCygqy-112" vertex="1">
                    <mxGeometry x="1080" y="760" width="320" height="180" as="geometry"/>
                </mxCell>
                <mxCell id="qSxPUbyXWgn4yMtCygqy-155" value="fin" style="strokeWidth=2;html=1;shape=mxgraph.flowchart.start_1;whiteSpace=wrap;" parent="qSxPUbyXWgn4yMtCygqy-112" vertex="1">
                    <mxGeometry x="145" y="440" width="110" height="40" as="geometry"/>
                </mxCell>
                <mxCell id="qSxPUbyXWgn4yMtCygqy-691" style="edgeStyle=orthogonalEdgeStyle;html=1;strokeColor=#000000;strokeWidth=1;fontFamily=Helvetica;fontSize=14;fontColor=#000000;endArrow=classic;endFill=1;" parent="qSxPUbyXWgn4yMtCygqy-112" source="qSxPUbyXWgn4yMtCygqy-160" target="qSxPUbyXWgn4yMtCygqy-119" edge="1">
                    <mxGeometry relative="1" as="geometry"/>
                </mxCell>
                <mxCell id="4" style="edgeStyle=none;html=1;entryX=0.5;entryY=0;entryDx=0;entryDy=0;" edge="1" parent="qSxPUbyXWgn4yMtCygqy-112" source="qSxPUbyXWgn4yMtCygqy-160" target="2">
                    <mxGeometry relative="1" as="geometry"/>
                </mxCell>
                <mxCell id="qSxPUbyXWgn4yMtCygqy-160" value="envío de solicitud al servicio para&lt;br&gt;que la procese" style="rounded=1;whiteSpace=wrap;html=1;absoluteArcSize=1;arcSize=14;strokeWidth=2;labelBackgroundColor=none;fontColor=#000000;" parent="qSxPUbyXWgn4yMtCygqy-112" vertex="1">
                    <mxGeometry x="80" y="240" width="240" height="50" as="geometry"/>
                </mxCell>
                <mxCell id="qSxPUbyXWgn4yMtCygqy-698" style="edgeStyle=orthogonalEdgeStyle;html=1;strokeColor=#000000;strokeWidth=1;fontFamily=Helvetica;fontSize=14;fontColor=#000000;endArrow=classic;endFill=1;" parent="qSxPUbyXWgn4yMtCygqy-112" source="qSxPUbyXWgn4yMtCygqy-163" target="qSxPUbyXWgn4yMtCygqy-164" edge="1">
                    <mxGeometry relative="1" as="geometry">
                        <Array as="points">
                            <mxPoint x="990" y="230"/>
                            <mxPoint x="990" y="230"/>
                        </Array>
                    </mxGeometry>
                </mxCell>
                <mxCell id="qSxPUbyXWgn4yMtCygqy-752" style="edgeStyle=orthogonalEdgeStyle;html=1;entryX=0.5;entryY=0;entryDx=0;entryDy=0;strokeColor=#000000;strokeWidth=1;fontFamily=Helvetica;fontSize=14;fontColor=#000000;endArrow=classic;endFill=1;" parent="qSxPUbyXWgn4yMtCygqy-112" source="qSxPUbyXWgn4yMtCygqy-163" target="qSxPUbyXWgn4yMtCygqy-743" edge="1">
                    <mxGeometry relative="1" as="geometry"/>
                </mxCell>
                <mxCell id="qSxPUbyXWgn4yMtCygqy-163" value="&lt;div style=&quot;line-height: 18px;&quot;&gt;&lt;span style=&quot;font-size: 14px;&quot;&gt;cargar user_key con el id y activationKey&lt;/span&gt;&lt;/div&gt;" style="rounded=1;whiteSpace=wrap;html=1;absoluteArcSize=1;arcSize=14;strokeWidth=2;labelBackgroundColor=none;fontColor=#000000;" parent="qSxPUbyXWgn4yMtCygqy-112" vertex="1">
                    <mxGeometry x="560" y="210" width="320" height="40" as="geometry"/>
                </mxCell>
                <mxCell id="qSxPUbyXWgn4yMtCygqy-164" value="&lt;div style=&quot;line-height: 18px;&quot;&gt;&lt;font style=&quot;font-size: 14px;&quot;&gt;findByIdWithUser&lt;/font&gt;&lt;/div&gt;" style="rounded=1;whiteSpace=wrap;html=1;absoluteArcSize=1;arcSize=14;strokeWidth=2;labelBackgroundColor=none;fontColor=#000000;" parent="qSxPUbyXWgn4yMtCygqy-112" vertex="1">
                    <mxGeometry x="1090" y="210" width="230" height="70" as="geometry"/>
                </mxCell>
                <mxCell id="qSxPUbyXWgn4yMtCygqy-177" style="edgeStyle=orthogonalEdgeStyle;html=1;entryX=0.5;entryY=0;entryDx=0;entryDy=0;fontFamily=Helvetica;fontSize=14;fontColor=#99CCFF;" parent="qSxPUbyXWgn4yMtCygqy-112" source="qSxPUbyXWgn4yMtCygqy-165" target="qSxPUbyXWgn4yMtCygqy-169" edge="1">
                    <mxGeometry relative="1" as="geometry"/>
                </mxCell>
                <mxCell id="qSxPUbyXWgn4yMtCygqy-165" value="&lt;div style=&quot;line-height: 18px;&quot;&gt;&lt;font style=&quot;font-size: 14px;&quot;&gt;Valida expiración de clave&lt;/font&gt;&lt;/div&gt;" style="rounded=1;whiteSpace=wrap;html=1;absoluteArcSize=1;arcSize=14;strokeWidth=2;labelBackgroundColor=none;fontColor=#000000;" parent="qSxPUbyXWgn4yMtCygqy-112" vertex="1">
                    <mxGeometry x="560" y="500" width="320" height="40" as="geometry"/>
                </mxCell>
                <mxCell id="qSxPUbyXWgn4yMtCygqy-169" value="&lt;div style=&quot;line-height: 18px;&quot;&gt;&lt;font style=&quot;font-size: 14px;&quot;&gt;enviar a procesar el store procedure&lt;/font&gt;&lt;/div&gt;" style="rounded=1;whiteSpace=wrap;html=1;absoluteArcSize=1;arcSize=14;strokeWidth=2;labelBackgroundColor=none;fontColor=#000000;" parent="qSxPUbyXWgn4yMtCygqy-112" vertex="1">
                    <mxGeometry x="560" y="580" width="320" height="40" as="geometry"/>
                </mxCell>
                <mxCell id="qSxPUbyXWgn4yMtCygqy-741" value="Store procedure" style="edgeStyle=orthogonalEdgeStyle;html=1;entryX=1;entryY=0;entryDx=0;entryDy=105;entryPerimeter=0;strokeColor=#000000;strokeWidth=1;fontFamily=Helvetica;fontSize=14;fontColor=#000000;endArrow=classic;endFill=1;" parent="qSxPUbyXWgn4yMtCygqy-112" source="qSxPUbyXWgn4yMtCygqy-180" target="qSxPUbyXWgn4yMtCygqy-331" edge="1">
                    <mxGeometry x="0.1748" y="-15" relative="1" as="geometry">
                        <mxPoint as="offset"/>
                    </mxGeometry>
                </mxCell>
                <mxCell id="qSxPUbyXWgn4yMtCygqy-180" value="&lt;div style=&quot;line-height: 18px;&quot;&gt;&lt;div style=&quot;line-height: 18px;&quot;&gt;&lt;font style=&quot;font-size: 14px;&quot;&gt;spActivateAccount&lt;/font&gt;&lt;/div&gt;&lt;/div&gt;" style="rounded=1;whiteSpace=wrap;html=1;absoluteArcSize=1;arcSize=14;strokeWidth=2;labelBackgroundColor=none;fillColor=#d5e8d4;strokeColor=#82b366;" parent="qSxPUbyXWgn4yMtCygqy-112" vertex="1">
                    <mxGeometry x="1120" y="870" width="240" height="40" as="geometry"/>
                </mxCell>
                <mxCell id="qSxPUbyXWgn4yMtCygqy-331" value="&lt;div style=&quot;font-family: Menlo, Monaco, &amp;quot;Courier New&amp;quot;, monospace; line-height: 18px;&quot;&gt;BD&lt;/div&gt;" style="shape=cylinder3;whiteSpace=wrap;html=1;boundedLbl=1;backgroundOutline=1;size=15;labelBackgroundColor=none;fontFamily=Helvetica;fontSize=14;fontColor=#000000;fillColor=none;verticalAlign=top;horizontal=1;align=left;" parent="qSxPUbyXWgn4yMtCygqy-112" vertex="1">
                    <mxGeometry x="795" y="790" width="120" height="120" as="geometry"/>
                </mxCell>
                <mxCell id="qSxPUbyXWgn4yMtCygqy-740" style="edgeStyle=orthogonalEdgeStyle;html=1;entryX=1;entryY=0;entryDx=0;entryDy=37.5;entryPerimeter=0;strokeColor=#000000;strokeWidth=1;fontFamily=Helvetica;fontSize=14;fontColor=#000000;endArrow=classic;endFill=1;" parent="qSxPUbyXWgn4yMtCygqy-112" source="qSxPUbyXWgn4yMtCygqy-337" target="qSxPUbyXWgn4yMtCygqy-331" edge="1">
                    <mxGeometry relative="1" as="geometry"/>
                </mxCell>
                <mxCell id="qSxPUbyXWgn4yMtCygqy-759" value="Query" style="edgeLabel;html=1;align=center;verticalAlign=middle;resizable=0;points=[];fontSize=14;fontFamily=Helvetica;fontColor=#000000;" parent="qSxPUbyXWgn4yMtCygqy-740" vertex="1" connectable="0">
                    <mxGeometry x="0.3065" y="1" relative="1" as="geometry">
                        <mxPoint x="12" y="-18" as="offset"/>
                    </mxGeometry>
                </mxCell>
                <mxCell id="qSxPUbyXWgn4yMtCygqy-756" style="edgeStyle=orthogonalEdgeStyle;html=1;entryX=-0.001;entryY=0.615;entryDx=0;entryDy=0;entryPerimeter=0;strokeColor=#000000;strokeWidth=1;fontFamily=Helvetica;fontSize=14;fontColor=#000000;endArrow=none;endFill=0;exitX=0.75;exitY=0;exitDx=0;exitDy=0;startArrow=classic;startFill=1;" parent="qSxPUbyXWgn4yMtCygqy-112" source="qSxPUbyXWgn4yMtCygqy-337" target="qSxPUbyXWgn4yMtCygqy-164" edge="1">
                    <mxGeometry relative="1" as="geometry">
                        <Array as="points">
                            <mxPoint x="1300" y="680"/>
                            <mxPoint x="1040" y="680"/>
                            <mxPoint x="1040" y="253"/>
                        </Array>
                    </mxGeometry>
                </mxCell>
                <mxCell id="qSxPUbyXWgn4yMtCygqy-337" value="&lt;div style=&quot;font-family: Menlo, Monaco, &amp;quot;Courier New&amp;quot;, monospace; line-height: 18px;&quot;&gt;findByIdWithUser&lt;/div&gt;" style="rounded=1;whiteSpace=wrap;html=1;absoluteArcSize=1;arcSize=14;strokeWidth=2;labelBackgroundColor=none;fillColor=#d5e8d4;strokeColor=#82b366;" parent="qSxPUbyXWgn4yMtCygqy-112" vertex="1">
                    <mxGeometry x="1120" y="800" width="240" height="40" as="geometry"/>
                </mxCell>
                <mxCell id="qSxPUbyXWgn4yMtCygqy-685" value="userValidationService" style="rounded=1;whiteSpace=wrap;html=1;labelBackgroundColor=none;fontFamily=Helvetica;fontSize=14;fontColor=#000000;fillColor=none;" parent="qSxPUbyXWgn4yMtCygqy-112" vertex="1">
                    <mxGeometry x="480" y="50" width="280" height="40" as="geometry"/>
                </mxCell>
                <mxCell id="qSxPUbyXWgn4yMtCygqy-701" value="&lt;div style=&quot;line-height: 18px; font-family: Menlo, Monaco, &amp;quot;Courier New&amp;quot;, monospace;&quot;&gt;&lt;div style=&quot;line-height: 18px;&quot;&gt;&lt;div style=&quot;line-height: 18px;&quot;&gt;&lt;div style=&quot;line-height: 18px;&quot;&gt;&lt;div style=&quot;line-height: 18px;&quot;&gt;executeActivateAccount&lt;/div&gt;&lt;/div&gt;&lt;/div&gt;&lt;/div&gt;&lt;/div&gt;" style="shape=process;whiteSpace=wrap;html=1;backgroundOutline=1;verticalAlign=top;align=left;size=0.045454545454545456;fillColor=none;" parent="qSxPUbyXWgn4yMtCygqy-112" vertex="1">
                    <mxGeometry x="1060" y="460" width="300" height="200" as="geometry"/>
                </mxCell>
                <mxCell id="qSxPUbyXWgn4yMtCygqy-754" style="edgeStyle=orthogonalEdgeStyle;html=1;entryX=1;entryY=0.5;entryDx=0;entryDy=0;strokeColor=#000000;strokeWidth=1;fontFamily=Helvetica;fontSize=14;fontColor=#000000;endArrow=classic;endFill=1;" parent="qSxPUbyXWgn4yMtCygqy-112" source="qSxPUbyXWgn4yMtCygqy-699" target="qSxPUbyXWgn4yMtCygqy-180" edge="1">
                    <mxGeometry relative="1" as="geometry">
                        <Array as="points">
                            <mxPoint x="1480" y="600"/>
                            <mxPoint x="1480" y="890"/>
                        </Array>
                    </mxGeometry>
                </mxCell>
                <mxCell id="qSxPUbyXWgn4yMtCygqy-699" value="&lt;div style=&quot;line-height: 18px;&quot;&gt;&lt;font style=&quot;font-size: 14px;&quot;&gt;enviar al procedimiento&lt;/font&gt;&lt;/div&gt;&lt;div style=&quot;line-height: 18px;&quot;&gt;&lt;font style=&quot;font-size: 14px;&quot;&gt;almacenado&lt;/font&gt;&lt;/div&gt;" style="rounded=1;whiteSpace=wrap;html=1;absoluteArcSize=1;arcSize=14;strokeWidth=2;labelBackgroundColor=none;fontColor=#000000;" parent="qSxPUbyXWgn4yMtCygqy-112" vertex="1">
                    <mxGeometry x="1100" y="570" width="230" height="60" as="geometry"/>
                </mxCell>
                <mxCell id="qSxPUbyXWgn4yMtCygqy-700" style="edgeStyle=orthogonalEdgeStyle;html=1;entryX=0;entryY=0.5;entryDx=0;entryDy=0;strokeColor=#000000;strokeWidth=1;fontFamily=Helvetica;fontSize=14;fontColor=#000000;endArrow=classic;endFill=1;exitX=1;exitY=0.5;exitDx=0;exitDy=0;" parent="qSxPUbyXWgn4yMtCygqy-112" source="qSxPUbyXWgn4yMtCygqy-169" target="qSxPUbyXWgn4yMtCygqy-699" edge="1">
                    <mxGeometry relative="1" as="geometry"/>
                </mxCell>
                <mxCell id="qSxPUbyXWgn4yMtCygqy-753" style="edgeStyle=orthogonalEdgeStyle;html=1;entryX=0.5;entryY=0;entryDx=0;entryDy=0;strokeColor=#000000;strokeWidth=1;fontFamily=Helvetica;fontSize=14;fontColor=#000000;endArrow=classic;endFill=1;" parent="qSxPUbyXWgn4yMtCygqy-112" source="qSxPUbyXWgn4yMtCygqy-734" target="qSxPUbyXWgn4yMtCygqy-699" edge="1">
                    <mxGeometry relative="1" as="geometry"/>
                </mxCell>
                <mxCell id="qSxPUbyXWgn4yMtCygqy-758" style="edgeStyle=orthogonalEdgeStyle;html=1;entryX=1;entryY=0.5;entryDx=0;entryDy=0;strokeColor=#000000;strokeWidth=1;fontFamily=Helvetica;fontSize=14;fontColor=#000000;endArrow=classic;endFill=1;" parent="qSxPUbyXWgn4yMtCygqy-112" source="qSxPUbyXWgn4yMtCygqy-734" target="qSxPUbyXWgn4yMtCygqy-757" edge="1">
                    <mxGeometry relative="1" as="geometry">
                        <Array as="points">
                            <mxPoint x="1440" y="520"/>
                            <mxPoint x="1440" y="1060"/>
                        </Array>
                    </mxGeometry>
                </mxCell>
                <mxCell id="qSxPUbyXWgn4yMtCygqy-734" value="&lt;div style=&quot;line-height: 18px; font-size: 14px;&quot;&gt;cargar el tiempo de expiración&lt;/div&gt;" style="rounded=1;whiteSpace=wrap;html=1;absoluteArcSize=1;arcSize=14;strokeWidth=2;labelBackgroundColor=none;fontColor=#000000;" parent="qSxPUbyXWgn4yMtCygqy-112" vertex="1">
                    <mxGeometry x="1100" y="500" width="230" height="40" as="geometry"/>
                </mxCell>
                <mxCell id="qSxPUbyXWgn4yMtCygqy-745" style="edgeStyle=orthogonalEdgeStyle;html=1;entryX=0.75;entryY=0;entryDx=0;entryDy=0;strokeColor=#000000;strokeWidth=1;fontFamily=Helvetica;fontSize=14;fontColor=#000000;endArrow=classic;endFill=1;" parent="qSxPUbyXWgn4yMtCygqy-112" source="qSxPUbyXWgn4yMtCygqy-743" target="qSxPUbyXWgn4yMtCygqy-744" edge="1">
                    <mxGeometry relative="1" as="geometry">
                        <Array as="points">
                            <mxPoint x="930" y="330"/>
                        </Array>
                    </mxGeometry>
                </mxCell>
                <mxCell id="qSxPUbyXWgn4yMtCygqy-746" value="Si" style="edgeLabel;html=1;align=center;verticalAlign=middle;resizable=0;points=[];fontSize=14;fontFamily=Helvetica;fontColor=#000000;" parent="qSxPUbyXWgn4yMtCygqy-745" vertex="1" connectable="0">
                    <mxGeometry x="-0.6038" y="-2" relative="1" as="geometry">
                        <mxPoint x="13" y="-12" as="offset"/>
                    </mxGeometry>
                </mxCell>
                <mxCell id="qSxPUbyXWgn4yMtCygqy-748" style="edgeStyle=orthogonalEdgeStyle;html=1;entryX=0;entryY=0;entryDx=0;entryDy=0;strokeColor=#000000;strokeWidth=1;fontFamily=Helvetica;fontSize=14;fontColor=#000000;endArrow=none;endFill=0;" parent="qSxPUbyXWgn4yMtCygqy-112" source="qSxPUbyXWgn4yMtCygqy-743" target="qSxPUbyXWgn4yMtCygqy-747" edge="1">
                    <mxGeometry relative="1" as="geometry">
                        <Array as="points">
                            <mxPoint x="530" y="330"/>
                            <mxPoint x="530" y="459"/>
                        </Array>
                    </mxGeometry>
                </mxCell>
                <mxCell id="qSxPUbyXWgn4yMtCygqy-749" value="No" style="edgeLabel;html=1;align=center;verticalAlign=middle;resizable=0;points=[];fontSize=14;fontFamily=Helvetica;fontColor=#000000;" parent="qSxPUbyXWgn4yMtCygqy-748" vertex="1" connectable="0">
                    <mxGeometry x="-0.4213" y="1" relative="1" as="geometry">
                        <mxPoint as="offset"/>
                    </mxGeometry>
                </mxCell>
                <mxCell id="qSxPUbyXWgn4yMtCygqy-743" value="tempPassword != null &amp;amp;&amp;amp;&lt;br&gt;tempPassword != user.getPassword()" style="rhombus;whiteSpace=wrap;html=1;labelBackgroundColor=none;strokeColor=#000000;strokeWidth=1;fontFamily=Helvetica;fontSize=14;fontColor=#000000;fillColor=none;" parent="qSxPUbyXWgn4yMtCygqy-112" vertex="1">
                    <mxGeometry x="560" y="280" width="320" height="100" as="geometry"/>
                </mxCell>
                <mxCell id="qSxPUbyXWgn4yMtCygqy-750" style="edgeStyle=orthogonalEdgeStyle;html=1;entryX=1;entryY=0;entryDx=0;entryDy=0;strokeColor=#000000;strokeWidth=1;fontFamily=Helvetica;fontSize=14;fontColor=#000000;endArrow=none;endFill=0;" parent="qSxPUbyXWgn4yMtCygqy-112" source="qSxPUbyXWgn4yMtCygqy-744" target="qSxPUbyXWgn4yMtCygqy-747" edge="1">
                    <mxGeometry relative="1" as="geometry">
                        <Array as="points">
                            <mxPoint x="890" y="459"/>
                        </Array>
                    </mxGeometry>
                </mxCell>
                <mxCell id="qSxPUbyXWgn4yMtCygqy-744" value="&lt;div style=&quot;line-height: 18px;&quot;&gt;&lt;font style=&quot;font-size: 14px;&quot;&gt;Exception&lt;/font&gt;&lt;/div&gt;" style="rounded=1;whiteSpace=wrap;html=1;absoluteArcSize=1;arcSize=14;strokeWidth=2;labelBackgroundColor=none;fontColor=#000000;" parent="qSxPUbyXWgn4yMtCygqy-112" vertex="1">
                    <mxGeometry x="840" y="390" width="120" height="40" as="geometry"/>
                </mxCell>
                <mxCell id="qSxPUbyXWgn4yMtCygqy-751" style="edgeStyle=orthogonalEdgeStyle;html=1;entryX=0.5;entryY=0;entryDx=0;entryDy=0;strokeColor=#000000;strokeWidth=1;fontFamily=Helvetica;fontSize=14;fontColor=#000000;endArrow=classic;endFill=1;" parent="qSxPUbyXWgn4yMtCygqy-112" source="qSxPUbyXWgn4yMtCygqy-747" target="qSxPUbyXWgn4yMtCygqy-165" edge="1">
                    <mxGeometry relative="1" as="geometry"/>
                </mxCell>
                <mxCell id="qSxPUbyXWgn4yMtCygqy-747" value="" style="rounded=0;whiteSpace=wrap;html=1;labelBackgroundColor=none;strokeColor=#000000;strokeWidth=1;fontFamily=Helvetica;fontSize=14;fontColor=#000000;fillColor=none;" parent="qSxPUbyXWgn4yMtCygqy-112" vertex="1">
                    <mxGeometry x="660" y="459.5" width="120" height="1" as="geometry"/>
                </mxCell>
                <mxCell id="qSxPUbyXWgn4yMtCygqy-757" value="&lt;div style=&quot;line-height: 18px; font-size: 14px;&quot;&gt;getExpirationActivation&lt;/div&gt;" style="rounded=1;whiteSpace=wrap;html=1;absoluteArcSize=1;arcSize=14;strokeWidth=2;labelBackgroundColor=none;fontColor=#000000;" parent="qSxPUbyXWgn4yMtCygqy-112" vertex="1">
                    <mxGeometry x="1095" y="1040" width="230" height="40" as="geometry"/>
                </mxCell>
                <mxCell id="qSxPUbyXWgn4yMtCygqy-281" value="&lt;div style=&quot;font-family: Menlo, Monaco, &amp;quot;Courier New&amp;quot;, monospace; line-height: 18px;&quot;&gt;&lt;font style=&quot;font-size: 14px; background-color: rgb(102, 255, 102);&quot;&gt;PublicUserController&lt;/font&gt;&lt;/div&gt;&lt;div style=&quot;font-family: Menlo, Monaco, &amp;quot;Courier New&amp;quot;, monospace; line-height: 18px;&quot;&gt;&lt;font style=&quot;font-size: 14px; background-color: rgb(102, 255, 102);&quot;&gt;PostMapping(&quot;/activate-account-with_temporary-password/{id}/{keyValue}&quot;)&lt;/font&gt;&lt;/div&gt;" style="shape=process;whiteSpace=wrap;html=1;backgroundOutline=1;labelBackgroundColor=none;fontFamily=Helvetica;fontSize=14;fontColor=#000000;fillColor=none;verticalAlign=top;align=left;size=0.0273972602739726;" parent="qSxPUbyXWgn4yMtCygqy-112" vertex="1">
                    <mxGeometry x="90" y="760" width="670" height="270" as="geometry"/>
                </mxCell>
                <mxCell id="qSxPUbyXWgn4yMtCygqy-283" value="Valida el id, keyValue y el objeto que se recibe" style="rounded=1;whiteSpace=wrap;html=1;labelBackgroundColor=none;fontFamily=Helvetica;fontSize=14;fontColor=#000000;fillColor=none;" parent="qSxPUbyXWgn4yMtCygqy-112" vertex="1">
                    <mxGeometry x="200" y="820" width="400" height="30" as="geometry"/>
                </mxCell>
                <mxCell id="qSxPUbyXWgn4yMtCygqy-284" value="Se envia a activar al User y retorna un userKey" style="rounded=1;whiteSpace=wrap;html=1;labelBackgroundColor=none;fontFamily=Helvetica;fontSize=14;fontColor=#000000;fillColor=none;" parent="qSxPUbyXWgn4yMtCygqy-112" vertex="1">
                    <mxGeometry x="200" y="880" width="400" height="30" as="geometry"/>
                </mxCell>
                <mxCell id="qSxPUbyXWgn4yMtCygqy-760" style="edgeStyle=orthogonalEdgeStyle;html=1;entryX=0;entryY=0.604;entryDx=0;entryDy=0;entryPerimeter=0;strokeColor=#000000;strokeWidth=1;fontFamily=Helvetica;fontSize=14;fontColor=#000000;endArrow=classic;endFill=1;exitX=0;exitY=0.5;exitDx=0;exitDy=0;" parent="qSxPUbyXWgn4yMtCygqy-112" source="qSxPUbyXWgn4yMtCygqy-284" target="qSxPUbyXWgn4yMtCygqy-119" edge="1">
                    <mxGeometry relative="1" as="geometry">
                        <Array as="points">
                            <mxPoint x="60" y="895"/>
                            <mxPoint x="60" y="560"/>
                            <mxPoint x="350" y="560"/>
                            <mxPoint x="350" y="462"/>
                        </Array>
                    </mxGeometry>
                </mxCell>
                <mxCell id="22" style="edgeStyle=orthogonalEdgeStyle;html=1;entryX=0.599;entryY=0.004;entryDx=0;entryDy=0;entryPerimeter=0;startArrow=none;startFill=0;endArrow=classic;endFill=1;" edge="1" parent="qSxPUbyXWgn4yMtCygqy-112" source="qSxPUbyXWgn4yMtCygqy-285" target="6">
                    <mxGeometry relative="1" as="geometry"/>
                </mxCell>
                <mxCell id="qSxPUbyXWgn4yMtCygqy-285" value="&lt;span style=&quot;font-size: 12px;&quot;&gt;envia notificación al ROLE_ADMIN&lt;/span&gt;" style="rounded=1;whiteSpace=wrap;html=1;labelBackgroundColor=none;fontFamily=Helvetica;fontSize=14;fontColor=#000000;fillColor=none;" parent="qSxPUbyXWgn4yMtCygqy-112" vertex="1">
                    <mxGeometry x="200" y="940" width="400" height="30" as="geometry"/>
                </mxCell>
                <mxCell id="qSxPUbyXWgn4yMtCygqy-326" style="edgeStyle=orthogonalEdgeStyle;html=1;entryX=0.5;entryY=0;entryDx=0;entryDy=0;fontFamily=Helvetica;fontSize=14;fontColor=#000000;" parent="qSxPUbyXWgn4yMtCygqy-112" source="qSxPUbyXWgn4yMtCygqy-283" target="qSxPUbyXWgn4yMtCygqy-284" edge="1">
                    <mxGeometry relative="1" as="geometry"/>
                </mxCell>
                <mxCell id="qSxPUbyXWgn4yMtCygqy-327" style="edgeStyle=orthogonalEdgeStyle;html=1;entryX=0.5;entryY=0;entryDx=0;entryDy=0;fontFamily=Helvetica;fontSize=14;fontColor=#000000;" parent="qSxPUbyXWgn4yMtCygqy-112" source="qSxPUbyXWgn4yMtCygqy-284" target="qSxPUbyXWgn4yMtCygqy-285" edge="1">
                    <mxGeometry relative="1" as="geometry"/>
                </mxCell>
                <mxCell id="qSxPUbyXWgn4yMtCygqy-280" value="Inicio" style="ellipse;whiteSpace=wrap;html=1;labelBackgroundColor=none;fontFamily=Helvetica;fontSize=14;fontColor=#000000;fillColor=none;" parent="qSxPUbyXWgn4yMtCygqy-112" vertex="1">
                    <mxGeometry x="470" y="1090" width="110" height="40" as="geometry"/>
                </mxCell>
                <mxCell id="qSxPUbyXWgn4yMtCygqy-355" style="edgeStyle=orthogonalEdgeStyle;html=1;fontFamily=Helvetica;fontSize=14;fontColor=#000000;endArrow=none;endFill=0;startArrow=classic;startFill=1;" parent="qSxPUbyXWgn4yMtCygqy-112" source="qSxPUbyXWgn4yMtCygqy-280" target="qSxPUbyXWgn4yMtCygqy-281" edge="1">
                    <mxGeometry relative="1" as="geometry"/>
                </mxCell>
                <mxCell id="qSxPUbyXWgn4yMtCygqy-762" style="edgeStyle=orthogonalEdgeStyle;html=1;entryX=0.25;entryY=0;entryDx=0;entryDy=0;strokeColor=#000000;strokeWidth=1;fontFamily=Helvetica;fontSize=14;fontColor=#000000;startArrow=none;startFill=0;endArrow=classic;endFill=1;" parent="qSxPUbyXWgn4yMtCygqy-112" source="qSxPUbyXWgn4yMtCygqy-761" target="qSxPUbyXWgn4yMtCygqy-281" edge="1">
                    <mxGeometry relative="1" as="geometry"/>
                </mxCell>
                <mxCell id="qSxPUbyXWgn4yMtCygqy-761" value="inicio" style="strokeWidth=2;html=1;shape=mxgraph.flowchart.start_1;whiteSpace=wrap;" parent="qSxPUbyXWgn4yMtCygqy-112" vertex="1">
                    <mxGeometry x="180" y="640" width="110" height="40" as="geometry"/>
                </mxCell>
                <mxCell id="21" style="edgeStyle=orthogonalEdgeStyle;html=1;exitX=0.25;exitY=1;exitDx=0;exitDy=0;startArrow=none;startFill=0;endArrow=classic;endFill=1;" edge="1" parent="qSxPUbyXWgn4yMtCygqy-112" source="2" target="6">
                    <mxGeometry relative="1" as="geometry">
                        <Array as="points">
                            <mxPoint x="140" y="410"/>
                            <mxPoint x="30" y="410"/>
                            <mxPoint x="30" y="1090"/>
                            <mxPoint x="268" y="1090"/>
                        </Array>
                    </mxGeometry>
                </mxCell>
                <mxCell id="2" value="Notificar e ROLE_ADMIN" style="rounded=1;whiteSpace=wrap;html=1;absoluteArcSize=1;arcSize=14;strokeWidth=2;labelBackgroundColor=none;fontColor=#000000;" vertex="1" parent="qSxPUbyXWgn4yMtCygqy-112">
                    <mxGeometry x="80" y="312.5" width="240" height="35" as="geometry"/>
                </mxCell>
                <mxCell id="5" value="&lt;div style=&quot;font-family: Menlo, Monaco, &amp;quot;Courier New&amp;quot;, monospace; line-height: 18px;&quot;&gt;userService&lt;/div&gt;" style="shape=process;whiteSpace=wrap;html=1;backgroundOutline=1;labelBackgroundColor=none;fontFamily=Helvetica;fontSize=14;fillColor=none;verticalAlign=top;align=left;size=0.0273972602739726;" vertex="1" parent="qSxPUbyXWgn4yMtCygqy-112">
                    <mxGeometry x="80" y="1160" width="560" height="340" as="geometry"/>
                </mxCell>
                <mxCell id="6" value="&lt;div style=&quot;font-family: Menlo, Monaco, &amp;quot;Courier New&amp;quot;, monospace; line-height: 18px;&quot;&gt;activatationReportToAdmin&lt;/div&gt;" style="shape=process;whiteSpace=wrap;html=1;backgroundOutline=1;labelBackgroundColor=none;fontFamily=Helvetica;fontSize=14;fillColor=none;verticalAlign=top;align=left;size=0.0273972602739726;" vertex="1" parent="qSxPUbyXWgn4yMtCygqy-112">
                    <mxGeometry x="120" y="1240" width="295" height="190" as="geometry"/>
                </mxCell>
                <mxCell id="13" style="edgeStyle=orthogonalEdgeStyle;html=1;entryX=0.5;entryY=0;entryDx=0;entryDy=0;startArrow=none;startFill=0;endArrow=classic;endFill=1;" edge="1" parent="qSxPUbyXWgn4yMtCygqy-112" source="7" target="8">
                    <mxGeometry relative="1" as="geometry"/>
                </mxCell>
                <mxCell id="20" style="edgeStyle=orthogonalEdgeStyle;html=1;startArrow=none;startFill=0;endArrow=classic;endFill=1;" edge="1" parent="qSxPUbyXWgn4yMtCygqy-112" source="7" target="9">
                    <mxGeometry relative="1" as="geometry"/>
                </mxCell>
                <mxCell id="7" value="&lt;span style=&quot;font-size: 12px;&quot;&gt;carga el user con ROLE_ADMIN&lt;/span&gt;" style="rounded=1;whiteSpace=wrap;html=1;labelBackgroundColor=none;fontFamily=Helvetica;fontSize=14;fontColor=#000000;fillColor=none;" vertex="1" parent="qSxPUbyXWgn4yMtCygqy-112">
                    <mxGeometry x="160" y="1290" width="200" height="30" as="geometry"/>
                </mxCell>
                <mxCell id="8" value="&lt;span style=&quot;font-size: 12px;&quot;&gt;envía el correo al ROLE_ADMIN&lt;/span&gt;" style="rounded=1;whiteSpace=wrap;html=1;labelBackgroundColor=none;fontFamily=Helvetica;fontSize=14;fontColor=#000000;fillColor=none;" vertex="1" parent="qSxPUbyXWgn4yMtCygqy-112">
                    <mxGeometry x="160" y="1370" width="200" height="30" as="geometry"/>
                </mxCell>
                <mxCell id="16" style="edgeStyle=orthogonalEdgeStyle;html=1;entryX=0;entryY=0.5;entryDx=0;entryDy=0;startArrow=none;startFill=0;endArrow=classic;endFill=1;" edge="1" parent="qSxPUbyXWgn4yMtCygqy-112" source="9" target="11">
                    <mxGeometry relative="1" as="geometry"/>
                </mxCell>
                <mxCell id="9" value="&lt;span style=&quot;font-size: 12px;&quot;&gt;gerFirstAdminUser&lt;/span&gt;" style="rounded=1;whiteSpace=wrap;html=1;labelBackgroundColor=none;fontFamily=Helvetica;fontSize=14;fontColor=#000000;fillColor=none;" vertex="1" parent="qSxPUbyXWgn4yMtCygqy-112">
                    <mxGeometry x="450" y="1290" width="120" height="30" as="geometry"/>
                </mxCell>
                <mxCell id="10" value="&lt;div style=&quot;font-family: Menlo, Monaco, &amp;quot;Courier New&amp;quot;, monospace; line-height: 18px;&quot;&gt;userRepository&lt;/div&gt;" style="shape=process;whiteSpace=wrap;html=1;backgroundOutline=1;labelBackgroundColor=none;fontFamily=Helvetica;fontSize=14;fillColor=none;verticalAlign=top;align=left;size=0.0273972602739726;" vertex="1" parent="qSxPUbyXWgn4yMtCygqy-112">
                    <mxGeometry x="730" y="1160" width="200" height="100" as="geometry"/>
                </mxCell>
                <mxCell id="17" style="edgeStyle=orthogonalEdgeStyle;html=1;entryX=0.655;entryY=1.004;entryDx=0;entryDy=0;entryPerimeter=0;startArrow=none;startFill=0;endArrow=classic;endFill=1;" edge="1" parent="qSxPUbyXWgn4yMtCygqy-112" source="11" target="qSxPUbyXWgn4yMtCygqy-331">
                    <mxGeometry relative="1" as="geometry">
                        <Array as="points">
                            <mxPoint x="950" y="1215"/>
                            <mxPoint x="950" y="1055"/>
                            <mxPoint x="874" y="1055"/>
                        </Array>
                    </mxGeometry>
                </mxCell>
                <mxCell id="18" value="Query" style="edgeLabel;html=1;align=center;verticalAlign=middle;resizable=0;points=[];" vertex="1" connectable="0" parent="17">
                    <mxGeometry x="-0.6589" y="-1" relative="1" as="geometry">
                        <mxPoint x="-36" y="-160" as="offset"/>
                    </mxGeometry>
                </mxCell>
                <mxCell id="11" value="&lt;span style=&quot;font-size: 12px;&quot;&gt;findFirstAdminUser&lt;/span&gt;" style="rounded=1;whiteSpace=wrap;html=1;labelBackgroundColor=none;fontFamily=Helvetica;fontSize=14;fontColor=#000000;fillColor=none;" vertex="1" parent="qSxPUbyXWgn4yMtCygqy-112">
                    <mxGeometry x="770" y="1200" width="120" height="30" as="geometry"/>
                </mxCell>
                <mxCell id="qSxPUbyXWgn4yMtCygqy-356" value="Solicitud de cambio de contraseña por parte del User" style="swimlane;whiteSpace=wrap;html=1;labelBackgroundColor=none;fontFamily=Helvetica;fontSize=14;fillColor=#d5e8d4;strokeColor=#82b366;" parent="1" vertex="1">
                    <mxGeometry x="2680" y="160" width="1650" height="1000" as="geometry"/>
                </mxCell>
                <mxCell id="qSxPUbyXWgn4yMtCygqy-576" value="&lt;div style=&quot;font-family: Menlo, Monaco, &amp;quot;Courier New&amp;quot;, monospace; line-height: 18px;&quot;&gt;&lt;div style=&quot;line-height: 18px;&quot;&gt;&lt;div style=&quot;line-height: 18px;&quot;&gt;&lt;div style=&quot;line-height: 18px;&quot;&gt;mailService&lt;/div&gt;&lt;/div&gt;&lt;/div&gt;&lt;/div&gt;" style="shape=process;whiteSpace=wrap;html=1;backgroundOutline=1;verticalAlign=top;align=left;fillColor=none;size=0.046511627906976744;" parent="qSxPUbyXWgn4yMtCygqy-356" vertex="1">
                    <mxGeometry x="40" y="560" width="390" height="90" as="geometry"/>
                </mxCell>
                <mxCell id="qSxPUbyXWgn4yMtCygqy-397" style="edgeStyle=orthogonalEdgeStyle;html=1;entryX=0.5;entryY=0;entryDx=0;entryDy=0;fontFamily=Helvetica;fontSize=14;fontColor=#000000;" parent="qSxPUbyXWgn4yMtCygqy-356" source="qSxPUbyXWgn4yMtCygqy-357" target="qSxPUbyXWgn4yMtCygqy-396" edge="1">
                    <mxGeometry relative="1" as="geometry"/>
                </mxCell>
                <mxCell id="qSxPUbyXWgn4yMtCygqy-357" value="&lt;div style=&quot;font-family: Menlo, Monaco, &amp;quot;Courier New&amp;quot;, monospace; line-height: 18px;&quot;&gt;&lt;span style=&quot;background-color: rgb(102, 255, 102);&quot;&gt;PublicUserController&lt;/span&gt;&lt;/div&gt;&lt;div style=&quot;font-family: Menlo, Monaco, &amp;quot;Courier New&amp;quot;, monospace; line-height: 18px;&quot;&gt;&lt;span style=&quot;background-color: rgb(102, 255, 102);&quot;&gt;PostMapping(&quot;/password-reset-request&quot;)&lt;/span&gt;&lt;/div&gt;" style="shape=process;whiteSpace=wrap;html=1;backgroundOutline=1;labelBackgroundColor=none;fontFamily=Helvetica;fontSize=14;fontColor=#000000;fillColor=none;size=0.044444444444444446;verticalAlign=top;align=left;" parent="qSxPUbyXWgn4yMtCygqy-356" vertex="1">
                    <mxGeometry x="20" y="120" width="370" height="240" as="geometry"/>
                </mxCell>
                <mxCell id="qSxPUbyXWgn4yMtCygqy-362" style="edgeStyle=orthogonalEdgeStyle;html=1;entryX=0;entryY=0.5;entryDx=0;entryDy=0;fontFamily=Helvetica;fontSize=14;fontColor=#000000;" parent="qSxPUbyXWgn4yMtCygqy-356" source="qSxPUbyXWgn4yMtCygqy-358" target="qSxPUbyXWgn4yMtCygqy-361" edge="1">
                    <mxGeometry relative="1" as="geometry">
                        <Array as="points">
                            <mxPoint x="410" y="200"/>
                            <mxPoint x="410" y="90"/>
                        </Array>
                    </mxGeometry>
                </mxCell>
                <mxCell id="qSxPUbyXWgn4yMtCygqy-398" style="edgeStyle=orthogonalEdgeStyle;html=1;entryX=0.5;entryY=0;entryDx=0;entryDy=0;fontFamily=Helvetica;fontSize=14;fontColor=#000000;" parent="qSxPUbyXWgn4yMtCygqy-356" source="qSxPUbyXWgn4yMtCygqy-358" target="qSxPUbyXWgn4yMtCygqy-359" edge="1">
                    <mxGeometry relative="1" as="geometry"/>
                </mxCell>
                <mxCell id="qSxPUbyXWgn4yMtCygqy-358" value="validar el DTO" style="rounded=1;whiteSpace=wrap;html=1;labelBackgroundColor=none;fontFamily=Helvetica;fontSize=14;fontColor=#000000;fillColor=none;" parent="qSxPUbyXWgn4yMtCygqy-356" vertex="1">
                    <mxGeometry x="120" y="180" width="180" height="40" as="geometry"/>
                </mxCell>
                <mxCell id="qSxPUbyXWgn4yMtCygqy-371" style="edgeStyle=orthogonalEdgeStyle;html=1;entryX=0.002;entryY=0.39;entryDx=0;entryDy=0;entryPerimeter=0;fontFamily=Helvetica;fontSize=14;fontColor=#000000;" parent="qSxPUbyXWgn4yMtCygqy-356" source="qSxPUbyXWgn4yMtCygqy-359" target="qSxPUbyXWgn4yMtCygqy-360" edge="1">
                    <mxGeometry relative="1" as="geometry">
                        <Array as="points">
                            <mxPoint x="420" y="285"/>
                            <mxPoint x="420" y="337"/>
                        </Array>
                    </mxGeometry>
                </mxCell>
                <mxCell id="qSxPUbyXWgn4yMtCygqy-359" value="procesar solicitud de restablecimiento" style="rounded=1;whiteSpace=wrap;html=1;labelBackgroundColor=none;fontFamily=Helvetica;fontSize=14;fontColor=#000000;fillColor=none;" parent="qSxPUbyXWgn4yMtCygqy-356" vertex="1">
                    <mxGeometry x="120" y="260" width="180" height="50" as="geometry"/>
                </mxCell>
                <mxCell id="qSxPUbyXWgn4yMtCygqy-360" value="UserService" style="shape=process;whiteSpace=wrap;html=1;backgroundOutline=1;labelBackgroundColor=none;fontFamily=Helvetica;fontSize=14;fontColor=#000000;fillColor=none;size=0.03389830508474576;verticalAlign=top;align=left;" parent="qSxPUbyXWgn4yMtCygqy-356" vertex="1">
                    <mxGeometry x="480" y="130" width="630" height="680" as="geometry"/>
                </mxCell>
                <mxCell id="qSxPUbyXWgn4yMtCygqy-361" value="userValidationService" style="rounded=1;whiteSpace=wrap;html=1;labelBackgroundColor=none;fontFamily=Helvetica;fontSize=14;fontColor=#000000;fillColor=none;" parent="qSxPUbyXWgn4yMtCygqy-356" vertex="1">
                    <mxGeometry x="478" y="70" width="232" height="40" as="geometry"/>
                </mxCell>
                <mxCell id="qSxPUbyXWgn4yMtCygqy-364" value="procesPasswordReset" style="shape=process;whiteSpace=wrap;html=1;backgroundOutline=1;labelBackgroundColor=none;fontFamily=Helvetica;fontSize=14;fontColor=#000000;fillColor=none;size=0.046153846153846156;verticalAlign=top;align=left;" parent="qSxPUbyXWgn4yMtCygqy-356" vertex="1">
                    <mxGeometry x="525" y="170" width="335" height="610" as="geometry"/>
                </mxCell>
                <mxCell id="qSxPUbyXWgn4yMtCygqy-572" style="edgeStyle=orthogonalEdgeStyle;html=1;entryX=0.5;entryY=0;entryDx=0;entryDy=0;strokeColor=#000000;strokeWidth=1;fontFamily=Helvetica;fontSize=14;fontColor=#000000;endArrow=classic;endFill=1;" parent="qSxPUbyXWgn4yMtCygqy-356" source="qSxPUbyXWgn4yMtCygqy-365" target="qSxPUbyXWgn4yMtCygqy-367" edge="1">
                    <mxGeometry relative="1" as="geometry"/>
                </mxCell>
                <mxCell id="qSxPUbyXWgn4yMtCygqy-365" value="" style="rounded=1;whiteSpace=wrap;html=1;labelBackgroundColor=none;fontFamily=Helvetica;fontSize=14;fontColor=#000000;fillColor=none;" parent="qSxPUbyXWgn4yMtCygqy-356" vertex="1">
                    <mxGeometry x="640" y="440" width="100" height="1" as="geometry"/>
                </mxCell>
                <mxCell id="qSxPUbyXWgn4yMtCygqy-387" style="edgeStyle=orthogonalEdgeStyle;html=1;entryX=0.5;entryY=0;entryDx=0;entryDy=0;fontFamily=Helvetica;fontSize=14;fontColor=#000000;" parent="qSxPUbyXWgn4yMtCygqy-356" source="qSxPUbyXWgn4yMtCygqy-367" target="qSxPUbyXWgn4yMtCygqy-378" edge="1">
                    <mxGeometry relative="1" as="geometry"/>
                </mxCell>
                <mxCell id="qSxPUbyXWgn4yMtCygqy-575" style="edgeStyle=orthogonalEdgeStyle;html=1;entryX=1;entryY=0.5;entryDx=0;entryDy=0;strokeColor=#000000;strokeWidth=1;fontFamily=Helvetica;fontSize=14;fontColor=#000000;endArrow=classic;endFill=1;" parent="qSxPUbyXWgn4yMtCygqy-356" source="qSxPUbyXWgn4yMtCygqy-367" target="qSxPUbyXWgn4yMtCygqy-377" edge="1">
                    <mxGeometry relative="1" as="geometry"/>
                </mxCell>
                <mxCell id="qSxPUbyXWgn4yMtCygqy-367" value="Genera un nuevo keyValue&lt;br&gt;con un keyPurpose = &quot;PASSWORD_RESET&quot;" style="rounded=1;whiteSpace=wrap;html=1;labelBackgroundColor=none;fontFamily=Helvetica;fontSize=14;fontColor=#000000;fillColor=none;" parent="qSxPUbyXWgn4yMtCygqy-356" vertex="1">
                    <mxGeometry x="580" y="470" width="200" height="70" as="geometry"/>
                </mxCell>
                <mxCell id="qSxPUbyXWgn4yMtCygqy-368" value="userRepository" style="shape=process;whiteSpace=wrap;html=1;backgroundOutline=1;labelBackgroundColor=none;fontFamily=Helvetica;fontSize=14;fontColor=#000000;fillColor=none;size=0.06382978723404255;verticalAlign=top;align=left;" parent="qSxPUbyXWgn4yMtCygqy-356" vertex="1">
                    <mxGeometry x="1200" y="230" width="240" height="180" as="geometry"/>
                </mxCell>
                <mxCell id="qSxPUbyXWgn4yMtCygqy-370" style="edgeStyle=orthogonalEdgeStyle;html=1;entryX=0.5;entryY=0;entryDx=0;entryDy=0;fontFamily=Helvetica;fontSize=14;fontColor=#000000;" parent="qSxPUbyXWgn4yMtCygqy-356" source="qSxPUbyXWgn4yMtCygqy-369" target="qSxPUbyXWgn4yMtCygqy-357" edge="1">
                    <mxGeometry relative="1" as="geometry"/>
                </mxCell>
                <mxCell id="qSxPUbyXWgn4yMtCygqy-369" value="Inicio" style="ellipse;whiteSpace=wrap;html=1;labelBackgroundColor=none;fontFamily=Helvetica;fontSize=14;fontColor=#000000;fillColor=none;" parent="qSxPUbyXWgn4yMtCygqy-356" vertex="1">
                    <mxGeometry x="154" y="40" width="102" height="40" as="geometry"/>
                </mxCell>
                <mxCell id="qSxPUbyXWgn4yMtCygqy-580" style="edgeStyle=orthogonalEdgeStyle;html=1;entryX=0.418;entryY=0.002;entryDx=0;entryDy=0;entryPerimeter=0;strokeColor=#000000;strokeWidth=1;fontFamily=Helvetica;fontSize=14;fontColor=#000000;endArrow=classic;endFill=1;" parent="qSxPUbyXWgn4yMtCygqy-356" source="qSxPUbyXWgn4yMtCygqy-372" target="qSxPUbyXWgn4yMtCygqy-392" edge="1">
                    <mxGeometry relative="1" as="geometry"/>
                </mxCell>
                <mxCell id="qSxPUbyXWgn4yMtCygqy-372" value="findByEmail" style="rounded=1;whiteSpace=wrap;html=1;labelBackgroundColor=none;fontFamily=Helvetica;fontSize=14;fillColor=#d5e8d4;strokeColor=#82b366;" parent="qSxPUbyXWgn4yMtCygqy-356" vertex="1">
                    <mxGeometry x="1260" y="270" width="130" height="40" as="geometry"/>
                </mxCell>
                <mxCell id="qSxPUbyXWgn4yMtCygqy-581" style="edgeStyle=orthogonalEdgeStyle;html=1;entryX=0;entryY=0.5;entryDx=0;entryDy=0;entryPerimeter=0;strokeColor=#000000;strokeWidth=1;fontFamily=Helvetica;fontSize=14;fontColor=#000000;endArrow=classic;endFill=1;" parent="qSxPUbyXWgn4yMtCygqy-356" source="qSxPUbyXWgn4yMtCygqy-373" target="qSxPUbyXWgn4yMtCygqy-392" edge="1">
                    <mxGeometry relative="1" as="geometry">
                        <Array as="points">
                            <mxPoint x="1470" y="360"/>
                            <mxPoint x="1470" y="470"/>
                        </Array>
                    </mxGeometry>
                </mxCell>
                <mxCell id="qSxPUbyXWgn4yMtCygqy-373" value="findByNickname" style="rounded=1;whiteSpace=wrap;html=1;labelBackgroundColor=none;fontFamily=Helvetica;fontSize=14;fillColor=#d5e8d4;strokeColor=#82b366;" parent="qSxPUbyXWgn4yMtCygqy-356" vertex="1">
                    <mxGeometry x="1260" y="340" width="130" height="40" as="geometry"/>
                </mxCell>
                <mxCell id="qSxPUbyXWgn4yMtCygqy-377" value="generateKey" style="rounded=1;whiteSpace=wrap;html=1;labelBackgroundColor=none;fontFamily=Helvetica;fontSize=14;fontColor=#000000;fillColor=none;" parent="qSxPUbyXWgn4yMtCygqy-356" vertex="1">
                    <mxGeometry x="290" y="478" width="130" height="55" as="geometry"/>
                </mxCell>
                <mxCell id="qSxPUbyXWgn4yMtCygqy-574" style="edgeStyle=orthogonalEdgeStyle;html=1;entryX=0.5;entryY=0;entryDx=0;entryDy=0;strokeColor=#000000;strokeWidth=1;fontFamily=Helvetica;fontSize=14;fontColor=#000000;endArrow=classic;endFill=1;" parent="qSxPUbyXWgn4yMtCygqy-356" source="qSxPUbyXWgn4yMtCygqy-378" target="qSxPUbyXWgn4yMtCygqy-379" edge="1">
                    <mxGeometry relative="1" as="geometry"/>
                </mxCell>
                <mxCell id="qSxPUbyXWgn4yMtCygqy-579" style="edgeStyle=orthogonalEdgeStyle;html=1;entryX=0;entryY=0.5;entryDx=0;entryDy=0;strokeColor=#000000;strokeWidth=1;fontFamily=Helvetica;fontSize=14;fontColor=#000000;endArrow=classic;endFill=1;" parent="qSxPUbyXWgn4yMtCygqy-356" source="qSxPUbyXWgn4yMtCygqy-378" target="qSxPUbyXWgn4yMtCygqy-381" edge="1">
                    <mxGeometry relative="1" as="geometry"/>
                </mxCell>
                <mxCell id="qSxPUbyXWgn4yMtCygqy-378" value="Guardar la clave en la BD" style="rounded=1;whiteSpace=wrap;html=1;labelBackgroundColor=none;fontFamily=Helvetica;fontSize=14;fontColor=#000000;fillColor=none;" parent="qSxPUbyXWgn4yMtCygqy-356" vertex="1">
                    <mxGeometry x="580" y="570" width="200" height="40" as="geometry"/>
                </mxCell>
                <mxCell id="qSxPUbyXWgn4yMtCygqy-391" style="edgeStyle=orthogonalEdgeStyle;html=1;entryX=1;entryY=0.5;entryDx=0;entryDy=0;fontFamily=Helvetica;fontSize=14;fontColor=#000000;exitX=0;exitY=0.5;exitDx=0;exitDy=0;" parent="qSxPUbyXWgn4yMtCygqy-356" source="27" target="qSxPUbyXWgn4yMtCygqy-390" edge="1">
                    <mxGeometry relative="1" as="geometry"/>
                </mxCell>
                <mxCell id="28" style="edgeStyle=orthogonalEdgeStyle;html=1;entryX=0.5;entryY=0;entryDx=0;entryDy=0;startArrow=none;startFill=0;endArrow=classic;endFill=1;" edge="1" parent="qSxPUbyXWgn4yMtCygqy-356" source="qSxPUbyXWgn4yMtCygqy-379" target="27">
                    <mxGeometry relative="1" as="geometry"/>
                </mxCell>
                <mxCell id="qSxPUbyXWgn4yMtCygqy-379" value="cargar el id al userKey" style="rounded=1;whiteSpace=wrap;html=1;labelBackgroundColor=none;fontFamily=Helvetica;fontSize=14;fontColor=#000000;fillColor=none;" parent="qSxPUbyXWgn4yMtCygqy-356" vertex="1">
                    <mxGeometry x="580" y="640" width="200" height="40" as="geometry"/>
                </mxCell>
                <mxCell id="qSxPUbyXWgn4yMtCygqy-380" value="userKeyServiceImpl" style="shape=process;whiteSpace=wrap;html=1;backgroundOutline=1;labelBackgroundColor=none;fontFamily=Helvetica;fontSize=14;fontColor=#000000;fillColor=none;size=0.06382978723404255;verticalAlign=top;align=left;" parent="qSxPUbyXWgn4yMtCygqy-356" vertex="1">
                    <mxGeometry x="1200" y="531" width="240" height="110" as="geometry"/>
                </mxCell>
                <mxCell id="qSxPUbyXWgn4yMtCygqy-389" style="edgeStyle=orthogonalEdgeStyle;html=1;entryX=0.461;entryY=0.045;entryDx=0;entryDy=0;entryPerimeter=0;fontFamily=Helvetica;fontSize=14;fontColor=#000000;" parent="qSxPUbyXWgn4yMtCygqy-356" source="qSxPUbyXWgn4yMtCygqy-381" target="qSxPUbyXWgn4yMtCygqy-384" edge="1">
                    <mxGeometry relative="1" as="geometry"/>
                </mxCell>
                <mxCell id="qSxPUbyXWgn4yMtCygqy-381" value="registerKeyValue" style="rounded=1;whiteSpace=wrap;html=1;labelBackgroundColor=none;fontFamily=Helvetica;fontSize=14;fontColor=#000000;fillColor=none;" parent="qSxPUbyXWgn4yMtCygqy-356" vertex="1">
                    <mxGeometry x="1255" y="571" width="130" height="40" as="geometry"/>
                </mxCell>
                <mxCell id="qSxPUbyXWgn4yMtCygqy-383" value="userKeyRepository" style="shape=process;whiteSpace=wrap;html=1;backgroundOutline=1;labelBackgroundColor=none;fontFamily=Helvetica;fontSize=14;fontColor=#000000;fillColor=none;size=0.06382978723404255;verticalAlign=top;align=left;" parent="qSxPUbyXWgn4yMtCygqy-356" vertex="1">
                    <mxGeometry x="1200" y="683" width="240" height="110" as="geometry"/>
                </mxCell>
                <mxCell id="qSxPUbyXWgn4yMtCygqy-582" style="edgeStyle=orthogonalEdgeStyle;html=1;entryX=0.5;entryY=1;entryDx=0;entryDy=0;entryPerimeter=0;strokeColor=#000000;strokeWidth=1;fontFamily=Helvetica;fontSize=14;fontColor=#000000;endArrow=classic;endFill=1;" parent="qSxPUbyXWgn4yMtCygqy-356" source="qSxPUbyXWgn4yMtCygqy-384" target="qSxPUbyXWgn4yMtCygqy-392" edge="1">
                    <mxGeometry relative="1" as="geometry"/>
                </mxCell>
                <mxCell id="qSxPUbyXWgn4yMtCygqy-384" value="save" style="rounded=1;whiteSpace=wrap;html=1;labelBackgroundColor=none;fontFamily=Helvetica;fontSize=14;fillColor=#d5e8d4;strokeColor=#82b366;" parent="qSxPUbyXWgn4yMtCygqy-356" vertex="1">
                    <mxGeometry x="1260" y="723" width="130" height="40" as="geometry"/>
                </mxCell>
                <mxCell id="qSxPUbyXWgn4yMtCygqy-584" style="edgeStyle=orthogonalEdgeStyle;html=1;entryX=0.075;entryY=-0.005;entryDx=0;entryDy=0;strokeColor=#000000;strokeWidth=1;fontFamily=Helvetica;fontSize=20;fontColor=#000000;endArrow=classic;endFill=1;entryPerimeter=0;" parent="qSxPUbyXWgn4yMtCygqy-356" source="qSxPUbyXWgn4yMtCygqy-390" target="qSxPUbyXWgn4yMtCygqy-583" edge="1">
                    <mxGeometry relative="1" as="geometry"/>
                </mxCell>
                <mxCell id="qSxPUbyXWgn4yMtCygqy-390" value="sendPasswordReset" style="rounded=1;whiteSpace=wrap;html=1;labelBackgroundColor=none;fontFamily=Helvetica;fontSize=14;fillColor=#fff2cc;strokeColor=#d6b656;" parent="qSxPUbyXWgn4yMtCygqy-356" vertex="1">
                    <mxGeometry x="155" y="575" width="200" height="60" as="geometry"/>
                </mxCell>
                <mxCell id="qSxPUbyXWgn4yMtCygqy-392" value="DB" style="shape=cylinder3;whiteSpace=wrap;html=1;boundedLbl=1;backgroundOutline=1;size=15;labelBackgroundColor=none;fontFamily=Helvetica;fontSize=14;fontColor=#000000;fillColor=none;" parent="qSxPUbyXWgn4yMtCygqy-356" vertex="1">
                    <mxGeometry x="1500" y="420" width="116" height="100" as="geometry"/>
                </mxCell>
                <mxCell id="qSxPUbyXWgn4yMtCygqy-396" value="Salir" style="ellipse;whiteSpace=wrap;html=1;labelBackgroundColor=none;fontFamily=Helvetica;fontSize=14;fontColor=#000000;fillColor=none;" parent="qSxPUbyXWgn4yMtCygqy-356" vertex="1">
                    <mxGeometry x="155" y="410" width="110" height="60" as="geometry"/>
                </mxCell>
                <mxCell id="qSxPUbyXWgn4yMtCygqy-558" style="edgeStyle=orthogonalEdgeStyle;html=1;entryX=0.5;entryY=0;entryDx=0;entryDy=0;strokeColor=#000000;strokeWidth=1;fontFamily=Helvetica;fontSize=14;fontColor=#000000;endArrow=classic;endFill=1;" parent="qSxPUbyXWgn4yMtCygqy-356" source="qSxPUbyXWgn4yMtCygqy-555" target="qSxPUbyXWgn4yMtCygqy-556" edge="1">
                    <mxGeometry relative="1" as="geometry">
                        <Array as="points">
                            <mxPoint x="760" y="300"/>
                        </Array>
                    </mxGeometry>
                </mxCell>
                <mxCell id="qSxPUbyXWgn4yMtCygqy-560" value="si" style="edgeLabel;html=1;align=center;verticalAlign=middle;resizable=0;points=[];fontSize=14;fontFamily=Helvetica;fontColor=#000000;" parent="qSxPUbyXWgn4yMtCygqy-558" vertex="1" connectable="0">
                    <mxGeometry x="-0.3564" y="1" relative="1" as="geometry">
                        <mxPoint as="offset"/>
                    </mxGeometry>
                </mxCell>
                <mxCell id="qSxPUbyXWgn4yMtCygqy-559" style="edgeStyle=orthogonalEdgeStyle;html=1;strokeColor=#000000;strokeWidth=1;fontFamily=Helvetica;fontSize=14;fontColor=#000000;endArrow=classic;endFill=1;" parent="qSxPUbyXWgn4yMtCygqy-356" source="qSxPUbyXWgn4yMtCygqy-555" target="qSxPUbyXWgn4yMtCygqy-557" edge="1">
                    <mxGeometry relative="1" as="geometry">
                        <Array as="points">
                            <mxPoint x="620" y="300"/>
                        </Array>
                    </mxGeometry>
                </mxCell>
                <mxCell id="qSxPUbyXWgn4yMtCygqy-561" value="no" style="edgeLabel;html=1;align=center;verticalAlign=middle;resizable=0;points=[];fontSize=14;fontFamily=Helvetica;fontColor=#000000;" parent="qSxPUbyXWgn4yMtCygqy-559" vertex="1" connectable="0">
                    <mxGeometry x="0.1372" y="1" relative="1" as="geometry">
                        <mxPoint as="offset"/>
                    </mxGeometry>
                </mxCell>
                <mxCell id="qSxPUbyXWgn4yMtCygqy-555" value="email not null" style="rhombus;whiteSpace=wrap;html=1;labelBackgroundColor=none;strokeColor=#000000;strokeWidth=1;fontFamily=Helvetica;fontSize=14;fontColor=#000000;fillColor=none;" parent="qSxPUbyXWgn4yMtCygqy-356" vertex="1">
                    <mxGeometry x="640" y="260" width="80" height="80" as="geometry"/>
                </mxCell>
                <mxCell id="qSxPUbyXWgn4yMtCygqy-565" style="edgeStyle=orthogonalEdgeStyle;html=1;entryX=1;entryY=0;entryDx=0;entryDy=0;strokeColor=#000000;strokeWidth=1;fontFamily=Helvetica;fontSize=14;fontColor=#000000;endArrow=none;endFill=0;" parent="qSxPUbyXWgn4yMtCygqy-356" source="qSxPUbyXWgn4yMtCygqy-556" target="qSxPUbyXWgn4yMtCygqy-365" edge="1">
                    <mxGeometry relative="1" as="geometry">
                        <Array as="points">
                            <mxPoint x="760" y="440"/>
                        </Array>
                    </mxGeometry>
                </mxCell>
                <mxCell id="qSxPUbyXWgn4yMtCygqy-568" style="edgeStyle=orthogonalEdgeStyle;html=1;entryX=0;entryY=0.5;entryDx=0;entryDy=0;strokeColor=#000000;strokeWidth=1;fontFamily=Helvetica;fontSize=14;fontColor=#000000;endArrow=classic;endFill=1;" parent="qSxPUbyXWgn4yMtCygqy-356" source="qSxPUbyXWgn4yMtCygqy-556" target="qSxPUbyXWgn4yMtCygqy-566" edge="1">
                    <mxGeometry relative="1" as="geometry">
                        <Array as="points">
                            <mxPoint x="880" y="360"/>
                            <mxPoint x="880" y="220"/>
                        </Array>
                    </mxGeometry>
                </mxCell>
                <mxCell id="qSxPUbyXWgn4yMtCygqy-556" value="getUserByEmail" style="rounded=1;whiteSpace=wrap;html=1;labelBackgroundColor=none;fontFamily=Helvetica;fontSize=14;fontColor=#000000;fillColor=none;" parent="qSxPUbyXWgn4yMtCygqy-356" vertex="1">
                    <mxGeometry x="700" y="340" width="120" height="40" as="geometry"/>
                </mxCell>
                <mxCell id="qSxPUbyXWgn4yMtCygqy-564" style="edgeStyle=orthogonalEdgeStyle;html=1;entryX=0;entryY=1;entryDx=0;entryDy=0;strokeColor=#000000;strokeWidth=1;fontFamily=Helvetica;fontSize=14;fontColor=#000000;endArrow=none;endFill=0;" parent="qSxPUbyXWgn4yMtCygqy-356" source="qSxPUbyXWgn4yMtCygqy-557" target="qSxPUbyXWgn4yMtCygqy-365" edge="1">
                    <mxGeometry relative="1" as="geometry">
                        <Array as="points">
                            <mxPoint x="620" y="440"/>
                            <mxPoint x="640" y="440"/>
                        </Array>
                    </mxGeometry>
                </mxCell>
                <mxCell id="qSxPUbyXWgn4yMtCygqy-569" style="edgeStyle=orthogonalEdgeStyle;html=1;entryX=0;entryY=0.5;entryDx=0;entryDy=0;strokeColor=#000000;strokeWidth=1;fontFamily=Helvetica;fontSize=14;fontColor=#000000;endArrow=classic;endFill=1;" parent="qSxPUbyXWgn4yMtCygqy-356" source="qSxPUbyXWgn4yMtCygqy-557" target="qSxPUbyXWgn4yMtCygqy-567" edge="1">
                    <mxGeometry relative="1" as="geometry">
                        <Array as="points">
                            <mxPoint x="910" y="400"/>
                            <mxPoint x="910" y="400"/>
                        </Array>
                    </mxGeometry>
                </mxCell>
                <mxCell id="qSxPUbyXWgn4yMtCygqy-557" value="getUserByNickname" style="rounded=1;whiteSpace=wrap;html=1;labelBackgroundColor=none;fontFamily=Helvetica;fontSize=14;fontColor=#000000;fillColor=none;" parent="qSxPUbyXWgn4yMtCygqy-356" vertex="1">
                    <mxGeometry x="550" y="380" width="140" height="40" as="geometry"/>
                </mxCell>
                <mxCell id="qSxPUbyXWgn4yMtCygqy-577" style="edgeStyle=orthogonalEdgeStyle;html=1;entryX=0;entryY=0.5;entryDx=0;entryDy=0;strokeColor=#000000;strokeWidth=1;fontFamily=Helvetica;fontSize=14;fontColor=#000000;endArrow=classic;endFill=1;" parent="qSxPUbyXWgn4yMtCygqy-356" source="qSxPUbyXWgn4yMtCygqy-566" target="qSxPUbyXWgn4yMtCygqy-372" edge="1">
                    <mxGeometry relative="1" as="geometry"/>
                </mxCell>
                <mxCell id="qSxPUbyXWgn4yMtCygqy-566" value="getUserByEmail" style="rounded=1;whiteSpace=wrap;html=1;labelBackgroundColor=none;fontFamily=Helvetica;fontSize=14;fontColor=#000000;fillColor=none;" parent="qSxPUbyXWgn4yMtCygqy-356" vertex="1">
                    <mxGeometry x="920" y="200" width="120" height="40" as="geometry"/>
                </mxCell>
                <mxCell id="qSxPUbyXWgn4yMtCygqy-578" style="edgeStyle=orthogonalEdgeStyle;html=1;entryX=0;entryY=0.5;entryDx=0;entryDy=0;strokeColor=#000000;strokeWidth=1;fontFamily=Helvetica;fontSize=14;fontColor=#000000;endArrow=classic;endFill=1;" parent="qSxPUbyXWgn4yMtCygqy-356" source="qSxPUbyXWgn4yMtCygqy-567" target="qSxPUbyXWgn4yMtCygqy-373" edge="1">
                    <mxGeometry relative="1" as="geometry"/>
                </mxCell>
                <mxCell id="qSxPUbyXWgn4yMtCygqy-567" value="getUserByNickname" style="rounded=1;whiteSpace=wrap;html=1;labelBackgroundColor=none;fontFamily=Helvetica;fontSize=14;fontColor=#000000;fillColor=none;" parent="qSxPUbyXWgn4yMtCygqy-356" vertex="1">
                    <mxGeometry x="930" y="380" width="140" height="40" as="geometry"/>
                </mxCell>
                <mxCell id="qSxPUbyXWgn4yMtCygqy-571" style="edgeStyle=orthogonalEdgeStyle;html=1;entryX=0.5;entryY=0;entryDx=0;entryDy=0;strokeColor=#000000;strokeWidth=1;fontFamily=Helvetica;fontSize=14;fontColor=#000000;endArrow=classic;endFill=1;" parent="qSxPUbyXWgn4yMtCygqy-356" source="qSxPUbyXWgn4yMtCygqy-570" target="qSxPUbyXWgn4yMtCygqy-555" edge="1">
                    <mxGeometry relative="1" as="geometry"/>
                </mxCell>
                <mxCell id="qSxPUbyXWgn4yMtCygqy-570" value="inicializar un User" style="rounded=1;whiteSpace=wrap;html=1;labelBackgroundColor=none;fontFamily=Helvetica;fontSize=14;fontColor=#000000;fillColor=none;" parent="qSxPUbyXWgn4yMtCygqy-356" vertex="1">
                    <mxGeometry x="610" y="200" width="140" height="40" as="geometry"/>
                </mxCell>
                <mxCell id="qSxPUbyXWgn4yMtCygqy-583" value="&lt;h1 style=&quot;font-size: 20px;&quot;&gt;&lt;font style=&quot;font-size: 20px;&quot;&gt;Contenido del email&lt;/font&gt;&lt;/h1&gt;&lt;p style=&quot;font-size: 20px;&quot;&gt;El correo incluye una url compuesta por contiene el id del user en la tabla user_key y el key_value, esta url debe llevarlo a un formulario que tiene un campo para ingresar su nueva contraseña.&lt;/p&gt;&lt;p style=&quot;font-size: 20px;&quot;&gt;La ruta que forma es &quot;&lt;span style=&quot;background-color: rgb(102, 255, 102);&quot;&gt;api/public/change-password-by-reset/id/key_value&lt;/span&gt;&quot;.&lt;/p&gt;" style="text;html=1;strokeColor=none;fillColor=none;spacing=5;spacingTop=-20;whiteSpace=wrap;overflow=hidden;rounded=0;labelBackgroundColor=none;strokeWidth=1;fontFamily=Helvetica;fontSize=14;fontColor=#000000;" parent="qSxPUbyXWgn4yMtCygqy-356" vertex="1">
                    <mxGeometry x="40" y="830" width="1080" height="162" as="geometry"/>
                </mxCell>
                <mxCell id="27" value="Enviar correo de restablecimiento" style="rounded=1;whiteSpace=wrap;html=1;labelBackgroundColor=none;fontFamily=Helvetica;fontSize=14;fontColor=#000000;fillColor=none;" vertex="1" parent="qSxPUbyXWgn4yMtCygqy-356">
                    <mxGeometry x="580" y="710" width="200" height="40" as="geometry"/>
                </mxCell>
                <mxCell id="qSxPUbyXWgn4yMtCygqy-460" value="Crear usuario" style="text;html=1;strokeColor=#001DBC;fillColor=#0050ef;align=center;verticalAlign=middle;whiteSpace=wrap;rounded=0;labelBackgroundColor=none;fontFamily=Helvetica;fontSize=35;fontColor=#ffffff;fontStyle=0" parent="1" vertex="1">
                    <mxGeometry x="-1150" y="30" width="390" height="50" as="geometry"/>
                </mxCell>
                <mxCell id="qSxPUbyXWgn4yMtCygqy-462" value="Solicitar y restablecer contraseña" style="text;html=1;strokeColor=#001DBC;fillColor=#0050ef;align=center;verticalAlign=middle;whiteSpace=wrap;rounded=0;labelBackgroundColor=none;fontFamily=Helvetica;fontSize=35;fontColor=#ffffff;fontStyle=0" parent="1" vertex="1">
                    <mxGeometry x="3120" y="30" width="670" height="50" as="geometry"/>
                </mxCell>
                <mxCell id="qSxPUbyXWgn4yMtCygqy-554" value="Resend Activation" style="text;html=1;strokeColor=#001DBC;fillColor=#0050ef;align=center;verticalAlign=middle;whiteSpace=wrap;rounded=0;labelBackgroundColor=none;fontFamily=Helvetica;fontSize=35;fontColor=#ffffff;fontStyle=0" parent="1" vertex="1">
                    <mxGeometry x="-1160" y="1680" width="390" height="50" as="geometry"/>
                </mxCell>
                <mxCell id="qSxPUbyXWgn4yMtCygqy-591" value="Restablecimiento de contraseña por parte del User" style="swimlane;whiteSpace=wrap;html=1;labelBackgroundColor=none;fontFamily=Helvetica;fontSize=14;fillColor=#d5e8d4;strokeColor=#82b366;" parent="1" vertex="1">
                    <mxGeometry x="2680" y="1240" width="1860" height="800" as="geometry"/>
                </mxCell>
                <mxCell id="qSxPUbyXWgn4yMtCygqy-593" style="edgeStyle=orthogonalEdgeStyle;html=1;entryX=0.5;entryY=0;entryDx=0;entryDy=0;fontFamily=Helvetica;fontSize=14;fontColor=#000000;" parent="qSxPUbyXWgn4yMtCygqy-591" source="qSxPUbyXWgn4yMtCygqy-594" target="qSxPUbyXWgn4yMtCygqy-630" edge="1">
                    <mxGeometry relative="1" as="geometry"/>
                </mxCell>
                <mxCell id="qSxPUbyXWgn4yMtCygqy-594" value="&lt;div style=&quot;font-family: Menlo, Monaco, &amp;quot;Courier New&amp;quot;, monospace; line-height: 18px;&quot;&gt;&lt;span style=&quot;background-color: rgb(102, 255, 102);&quot;&gt;PublicUserController&lt;/span&gt;&lt;/div&gt;&lt;div style=&quot;font-family: Menlo, Monaco, &amp;quot;Courier New&amp;quot;, monospace; line-height: 18px;&quot;&gt;&lt;span style=&quot;background-color: rgb(102, 255, 102);&quot;&gt;PostMapping(&lt;/span&gt;&lt;/div&gt;&lt;div style=&quot;font-family: Menlo, Monaco, &amp;quot;Courier New&amp;quot;, monospace; line-height: 18px;&quot;&gt;&lt;span style=&quot;background-color: rgb(102, 255, 102);&quot;&gt;&quot;/change-password-by-reset/{id}/{keyValue&quot;)&lt;/span&gt;&lt;/div&gt;" style="shape=process;whiteSpace=wrap;html=1;backgroundOutline=1;labelBackgroundColor=none;fontFamily=Helvetica;fontSize=14;fontColor=#000000;fillColor=none;size=0.044444444444444446;verticalAlign=top;align=left;" parent="qSxPUbyXWgn4yMtCygqy-591" vertex="1">
                    <mxGeometry x="20" y="120" width="420" height="290" as="geometry"/>
                </mxCell>
                <mxCell id="qSxPUbyXWgn4yMtCygqy-596" style="edgeStyle=orthogonalEdgeStyle;html=1;entryX=0.5;entryY=0;entryDx=0;entryDy=0;fontFamily=Helvetica;fontSize=14;fontColor=#000000;" parent="qSxPUbyXWgn4yMtCygqy-591" source="qSxPUbyXWgn4yMtCygqy-597" target="qSxPUbyXWgn4yMtCygqy-599" edge="1">
                    <mxGeometry relative="1" as="geometry"/>
                </mxCell>
                <mxCell id="qSxPUbyXWgn4yMtCygqy-675" style="edgeStyle=orthogonalEdgeStyle;html=1;entryX=0.25;entryY=1;entryDx=0;entryDy=0;strokeColor=#000000;strokeWidth=1;fontFamily=Helvetica;fontSize=14;fontColor=#000000;endArrow=classic;endFill=1;" parent="qSxPUbyXWgn4yMtCygqy-591" source="qSxPUbyXWgn4yMtCygqy-597" target="qSxPUbyXWgn4yMtCygqy-601" edge="1">
                    <mxGeometry relative="1" as="geometry"/>
                </mxCell>
                <mxCell id="qSxPUbyXWgn4yMtCygqy-597" value="validar el DTO" style="rounded=1;whiteSpace=wrap;html=1;labelBackgroundColor=none;fontFamily=Helvetica;fontSize=14;fontColor=#000000;fillColor=none;" parent="qSxPUbyXWgn4yMtCygqy-591" vertex="1">
                    <mxGeometry x="120" y="190" width="180" height="40" as="geometry"/>
                </mxCell>
                <mxCell id="qSxPUbyXWgn4yMtCygqy-676" style="edgeStyle=orthogonalEdgeStyle;html=1;entryX=0;entryY=0.25;entryDx=0;entryDy=0;strokeColor=#000000;strokeWidth=1;fontFamily=Helvetica;fontSize=14;fontColor=#000000;endArrow=classic;endFill=1;" parent="qSxPUbyXWgn4yMtCygqy-591" source="qSxPUbyXWgn4yMtCygqy-599" target="qSxPUbyXWgn4yMtCygqy-602" edge="1">
                    <mxGeometry relative="1" as="geometry"/>
                </mxCell>
                <mxCell id="qSxPUbyXWgn4yMtCygqy-677" style="edgeStyle=orthogonalEdgeStyle;html=1;entryX=0.5;entryY=0;entryDx=0;entryDy=0;strokeColor=#000000;strokeWidth=1;fontFamily=Helvetica;fontSize=14;fontColor=#000000;endArrow=classic;endFill=1;" parent="qSxPUbyXWgn4yMtCygqy-591" source="qSxPUbyXWgn4yMtCygqy-599" target="qSxPUbyXWgn4yMtCygqy-672" edge="1">
                    <mxGeometry relative="1" as="geometry"/>
                </mxCell>
                <mxCell id="qSxPUbyXWgn4yMtCygqy-599" value="envío a procesar solicitud de cambio de contraseña" style="rounded=1;whiteSpace=wrap;html=1;labelBackgroundColor=none;fontFamily=Helvetica;fontSize=14;fontColor=#000000;fillColor=none;" parent="qSxPUbyXWgn4yMtCygqy-591" vertex="1">
                    <mxGeometry x="120" y="260" width="180" height="50" as="geometry"/>
                </mxCell>
                <mxCell id="qSxPUbyXWgn4yMtCygqy-600" value="UserService" style="shape=process;whiteSpace=wrap;html=1;backgroundOutline=1;labelBackgroundColor=none;fontFamily=Helvetica;fontSize=14;fontColor=#000000;fillColor=none;size=0.03389830508474576;verticalAlign=top;align=left;" parent="qSxPUbyXWgn4yMtCygqy-591" vertex="1">
                    <mxGeometry x="520" y="120" width="690" height="610" as="geometry"/>
                </mxCell>
                <mxCell id="qSxPUbyXWgn4yMtCygqy-601" value="userValidationService" style="rounded=1;whiteSpace=wrap;html=1;labelBackgroundColor=none;fontFamily=Helvetica;fontSize=14;fontColor=#000000;fillColor=none;" parent="qSxPUbyXWgn4yMtCygqy-591" vertex="1">
                    <mxGeometry x="420" y="50" width="232" height="40" as="geometry"/>
                </mxCell>
                <mxCell id="qSxPUbyXWgn4yMtCygqy-602" value="changePasswordByReset" style="shape=process;whiteSpace=wrap;html=1;backgroundOutline=1;labelBackgroundColor=none;fontFamily=Helvetica;fontSize=14;fontColor=#000000;fillColor=none;size=0.046153846153846156;verticalAlign=top;align=left;" parent="qSxPUbyXWgn4yMtCygqy-591" vertex="1">
                    <mxGeometry x="565" y="160" width="335" height="540" as="geometry"/>
                </mxCell>
                <mxCell id="qSxPUbyXWgn4yMtCygqy-668" style="edgeStyle=orthogonalEdgeStyle;html=1;entryX=0.5;entryY=0;entryDx=0;entryDy=0;strokeColor=#000000;strokeWidth=1;fontFamily=Helvetica;fontSize=20;fontColor=#000000;endArrow=classic;endFill=1;" parent="qSxPUbyXWgn4yMtCygqy-591" source="qSxPUbyXWgn4yMtCygqy-604" target="qSxPUbyXWgn4yMtCygqy-618" edge="1">
                    <mxGeometry relative="1" as="geometry"/>
                </mxCell>
                <mxCell id="qSxPUbyXWgn4yMtCygqy-604" value="" style="rounded=1;whiteSpace=wrap;html=1;labelBackgroundColor=none;fontFamily=Helvetica;fontSize=14;fontColor=#000000;fillColor=none;" parent="qSxPUbyXWgn4yMtCygqy-591" vertex="1">
                    <mxGeometry x="690" y="530" width="100" height="1" as="geometry"/>
                </mxCell>
                <mxCell id="qSxPUbyXWgn4yMtCygqy-658" style="edgeStyle=orthogonalEdgeStyle;html=1;entryX=0;entryY=0.5;entryDx=0;entryDy=0;strokeColor=#000000;strokeWidth=1;fontFamily=Helvetica;fontSize=20;fontColor=#000000;endArrow=classic;endFill=1;" parent="qSxPUbyXWgn4yMtCygqy-591" source="qSxPUbyXWgn4yMtCygqy-607" target="qSxPUbyXWgn4yMtCygqy-657" edge="1">
                    <mxGeometry relative="1" as="geometry"/>
                </mxCell>
                <mxCell id="qSxPUbyXWgn4yMtCygqy-664" style="edgeStyle=orthogonalEdgeStyle;html=1;entryX=0.5;entryY=0;entryDx=0;entryDy=0;strokeColor=#000000;strokeWidth=1;fontFamily=Helvetica;fontSize=20;fontColor=#000000;endArrow=classic;endFill=1;" parent="qSxPUbyXWgn4yMtCygqy-591" source="qSxPUbyXWgn4yMtCygqy-607" target="qSxPUbyXWgn4yMtCygqy-661" edge="1">
                    <mxGeometry relative="1" as="geometry"/>
                </mxCell>
                <mxCell id="qSxPUbyXWgn4yMtCygqy-607" value="verifica si la clave de restablecimiento&lt;br&gt;ha expirado" style="rounded=1;whiteSpace=wrap;html=1;labelBackgroundColor=none;fontFamily=Helvetica;fontSize=14;fontColor=#000000;fillColor=none;" parent="qSxPUbyXWgn4yMtCygqy-591" vertex="1">
                    <mxGeometry x="600" y="260" width="260" height="40" as="geometry"/>
                </mxCell>
                <mxCell id="qSxPUbyXWgn4yMtCygqy-608" value="userRepository" style="shape=process;whiteSpace=wrap;html=1;backgroundOutline=1;labelBackgroundColor=none;fontFamily=Helvetica;fontSize=14;fontColor=#000000;fillColor=none;size=0.06382978723404255;verticalAlign=top;align=left;" parent="qSxPUbyXWgn4yMtCygqy-591" vertex="1">
                    <mxGeometry x="1260" y="320" width="240" height="110" as="geometry"/>
                </mxCell>
                <mxCell id="qSxPUbyXWgn4yMtCygqy-609" style="edgeStyle=orthogonalEdgeStyle;html=1;entryX=0.5;entryY=0;entryDx=0;entryDy=0;fontFamily=Helvetica;fontSize=14;fontColor=#000000;" parent="qSxPUbyXWgn4yMtCygqy-591" source="qSxPUbyXWgn4yMtCygqy-610" target="qSxPUbyXWgn4yMtCygqy-594" edge="1">
                    <mxGeometry relative="1" as="geometry"/>
                </mxCell>
                <mxCell id="qSxPUbyXWgn4yMtCygqy-610" value="Inicio" style="ellipse;whiteSpace=wrap;html=1;labelBackgroundColor=none;fontFamily=Helvetica;fontSize=14;fontColor=#000000;fillColor=none;" parent="qSxPUbyXWgn4yMtCygqy-591" vertex="1">
                    <mxGeometry x="154" y="40" width="102" height="40" as="geometry"/>
                </mxCell>
                <mxCell id="qSxPUbyXWgn4yMtCygqy-611" style="edgeStyle=orthogonalEdgeStyle;html=1;entryX=0.418;entryY=0.002;entryDx=0;entryDy=0;entryPerimeter=0;strokeColor=#000000;strokeWidth=1;fontFamily=Helvetica;fontSize=14;fontColor=#000000;endArrow=classic;endFill=1;" parent="qSxPUbyXWgn4yMtCygqy-591" source="qSxPUbyXWgn4yMtCygqy-612" target="qSxPUbyXWgn4yMtCygqy-629" edge="1">
                    <mxGeometry relative="1" as="geometry"/>
                </mxCell>
                <mxCell id="qSxPUbyXWgn4yMtCygqy-612" value="findById" style="rounded=1;whiteSpace=wrap;html=1;labelBackgroundColor=none;fontFamily=Helvetica;fontSize=14;fillColor=#d5e8d4;strokeColor=#82b366;" parent="qSxPUbyXWgn4yMtCygqy-591" vertex="1">
                    <mxGeometry x="1320" y="360" width="130" height="40" as="geometry"/>
                </mxCell>
                <mxCell id="qSxPUbyXWgn4yMtCygqy-616" style="edgeStyle=orthogonalEdgeStyle;html=1;entryX=0.5;entryY=0;entryDx=0;entryDy=0;strokeColor=#000000;strokeWidth=1;fontFamily=Helvetica;fontSize=14;fontColor=#000000;endArrow=classic;endFill=1;" parent="qSxPUbyXWgn4yMtCygqy-591" source="qSxPUbyXWgn4yMtCygqy-618" target="qSxPUbyXWgn4yMtCygqy-620" edge="1">
                    <mxGeometry relative="1" as="geometry"/>
                </mxCell>
                <mxCell id="qSxPUbyXWgn4yMtCygqy-618" value="Encripta la nueva contraseña" style="rounded=1;whiteSpace=wrap;html=1;labelBackgroundColor=none;fontFamily=Helvetica;fontSize=14;fontColor=#000000;fillColor=none;" parent="qSxPUbyXWgn4yMtCygqy-591" vertex="1">
                    <mxGeometry x="600" y="560" width="260" height="40" as="geometry"/>
                </mxCell>
                <mxCell id="qSxPUbyXWgn4yMtCygqy-669" style="edgeStyle=orthogonalEdgeStyle;html=1;entryX=0.5;entryY=1;entryDx=0;entryDy=0;strokeColor=#000000;strokeWidth=1;fontFamily=Helvetica;fontSize=20;fontColor=#000000;endArrow=classic;endFill=1;" parent="qSxPUbyXWgn4yMtCygqy-591" source="qSxPUbyXWgn4yMtCygqy-620" target="qSxPUbyXWgn4yMtCygqy-645" edge="1">
                    <mxGeometry relative="1" as="geometry"/>
                </mxCell>
                <mxCell id="qSxPUbyXWgn4yMtCygqy-620" value="envío a procesar la solicitud de restablecimiento" style="rounded=1;whiteSpace=wrap;html=1;labelBackgroundColor=none;fontFamily=Helvetica;fontSize=14;fontColor=#000000;fillColor=none;" parent="qSxPUbyXWgn4yMtCygqy-591" vertex="1">
                    <mxGeometry x="600" y="630" width="260" height="40" as="geometry"/>
                </mxCell>
                <mxCell id="qSxPUbyXWgn4yMtCygqy-624" value="userKeyRepository" style="shape=process;whiteSpace=wrap;html=1;backgroundOutline=1;labelBackgroundColor=none;fontFamily=Helvetica;fontSize=14;fontColor=#000000;fillColor=none;size=0.06382978723404255;verticalAlign=top;align=left;" parent="qSxPUbyXWgn4yMtCygqy-591" vertex="1">
                    <mxGeometry x="1265" y="620" width="435" height="110" as="geometry"/>
                </mxCell>
                <mxCell id="qSxPUbyXWgn4yMtCygqy-671" value="&lt;font style=&quot;font-size: 14px;&quot;&gt;Store Procedure&lt;/font&gt;" style="edgeStyle=orthogonalEdgeStyle;html=1;exitX=0.5;exitY=0;exitDx=0;exitDy=0;entryX=0.5;entryY=1;entryDx=0;entryDy=0;entryPerimeter=0;strokeColor=#000000;strokeWidth=1;fontFamily=Helvetica;fontSize=20;fontColor=#000000;endArrow=classic;endFill=1;" parent="qSxPUbyXWgn4yMtCygqy-591" source="qSxPUbyXWgn4yMtCygqy-626" target="qSxPUbyXWgn4yMtCygqy-629" edge="1">
                    <mxGeometry relative="1" as="geometry">
                        <Array as="points">
                            <mxPoint x="1480" y="580"/>
                            <mxPoint x="1638" y="580"/>
                        </Array>
                    </mxGeometry>
                </mxCell>
                <mxCell id="qSxPUbyXWgn4yMtCygqy-626" value="spChangePasswordByReset" style="rounded=1;whiteSpace=wrap;html=1;labelBackgroundColor=none;fontFamily=Helvetica;fontSize=14;fillColor=#d5e8d4;strokeColor=#82b366;" parent="qSxPUbyXWgn4yMtCygqy-591" vertex="1">
                    <mxGeometry x="1310" y="660" width="340" height="40" as="geometry"/>
                </mxCell>
                <mxCell id="qSxPUbyXWgn4yMtCygqy-629" value="DB" style="shape=cylinder3;whiteSpace=wrap;html=1;boundedLbl=1;backgroundOutline=1;size=15;labelBackgroundColor=none;fontFamily=Helvetica;fontSize=14;fontColor=#000000;fillColor=none;" parent="qSxPUbyXWgn4yMtCygqy-591" vertex="1">
                    <mxGeometry x="1580" y="410" width="116" height="100" as="geometry"/>
                </mxCell>
                <mxCell id="qSxPUbyXWgn4yMtCygqy-630" value="Salir" style="ellipse;whiteSpace=wrap;html=1;labelBackgroundColor=none;fontFamily=Helvetica;fontSize=14;fontColor=#000000;fillColor=none;" parent="qSxPUbyXWgn4yMtCygqy-591" vertex="1">
                    <mxGeometry x="175" y="500" width="110" height="60" as="geometry"/>
                </mxCell>
                <mxCell id="qSxPUbyXWgn4yMtCygqy-631" style="edgeStyle=orthogonalEdgeStyle;html=1;entryX=0.5;entryY=0;entryDx=0;entryDy=0;strokeColor=#000000;strokeWidth=1;fontFamily=Helvetica;fontSize=14;fontColor=#000000;endArrow=classic;endFill=1;" parent="qSxPUbyXWgn4yMtCygqy-591" source="qSxPUbyXWgn4yMtCygqy-635" target="qSxPUbyXWgn4yMtCygqy-638" edge="1">
                    <mxGeometry relative="1" as="geometry">
                        <Array as="points">
                            <mxPoint x="820" y="440"/>
                        </Array>
                    </mxGeometry>
                </mxCell>
                <mxCell id="qSxPUbyXWgn4yMtCygqy-632" value="si" style="edgeLabel;html=1;align=center;verticalAlign=middle;resizable=0;points=[];fontSize=14;fontFamily=Helvetica;fontColor=#000000;" parent="qSxPUbyXWgn4yMtCygqy-631" vertex="1" connectable="0">
                    <mxGeometry x="-0.3564" y="1" relative="1" as="geometry">
                        <mxPoint as="offset"/>
                    </mxGeometry>
                </mxCell>
                <mxCell id="qSxPUbyXWgn4yMtCygqy-633" style="edgeStyle=orthogonalEdgeStyle;html=1;strokeColor=#000000;strokeWidth=1;fontFamily=Helvetica;fontSize=14;fontColor=#000000;endArrow=none;endFill=0;entryX=0;entryY=0.5;entryDx=0;entryDy=0;" parent="qSxPUbyXWgn4yMtCygqy-591" source="qSxPUbyXWgn4yMtCygqy-635" target="qSxPUbyXWgn4yMtCygqy-604" edge="1">
                    <mxGeometry relative="1" as="geometry">
                        <Array as="points">
                            <mxPoint x="600" y="440"/>
                            <mxPoint x="600" y="531"/>
                        </Array>
                        <mxPoint x="670" y="460" as="targetPoint"/>
                    </mxGeometry>
                </mxCell>
                <mxCell id="qSxPUbyXWgn4yMtCygqy-634" value="no" style="edgeLabel;html=1;align=center;verticalAlign=middle;resizable=0;points=[];fontSize=14;fontFamily=Helvetica;fontColor=#000000;" parent="qSxPUbyXWgn4yMtCygqy-633" vertex="1" connectable="0">
                    <mxGeometry x="0.1372" y="1" relative="1" as="geometry">
                        <mxPoint x="-1" y="-65" as="offset"/>
                    </mxGeometry>
                </mxCell>
                <mxCell id="qSxPUbyXWgn4yMtCygqy-635" value="NewPassword&lt;br&gt;== oldPassword" style="rhombus;whiteSpace=wrap;html=1;labelBackgroundColor=none;strokeColor=#000000;strokeWidth=1;fontFamily=Helvetica;fontSize=14;fontColor=#000000;fillColor=none;" parent="qSxPUbyXWgn4yMtCygqy-591" vertex="1">
                    <mxGeometry x="630" y="400" width="160" height="80" as="geometry"/>
                </mxCell>
                <mxCell id="qSxPUbyXWgn4yMtCygqy-667" style="edgeStyle=orthogonalEdgeStyle;html=1;entryX=1;entryY=0.5;entryDx=0;entryDy=0;strokeColor=#000000;strokeWidth=1;fontFamily=Helvetica;fontSize=20;fontColor=#000000;endArrow=none;endFill=0;" parent="qSxPUbyXWgn4yMtCygqy-591" source="qSxPUbyXWgn4yMtCygqy-638" target="qSxPUbyXWgn4yMtCygqy-604" edge="1">
                    <mxGeometry relative="1" as="geometry">
                        <Array as="points">
                            <mxPoint x="820" y="531"/>
                        </Array>
                    </mxGeometry>
                </mxCell>
                <mxCell id="qSxPUbyXWgn4yMtCygqy-638" value="Exception" style="rounded=1;whiteSpace=wrap;html=1;labelBackgroundColor=none;fontFamily=Helvetica;fontSize=14;fontColor=#000000;fillColor=none;" parent="qSxPUbyXWgn4yMtCygqy-591" vertex="1">
                    <mxGeometry x="760" y="468" width="120" height="40" as="geometry"/>
                </mxCell>
                <mxCell id="qSxPUbyXWgn4yMtCygqy-642" style="edgeStyle=orthogonalEdgeStyle;html=1;entryX=0;entryY=0.5;entryDx=0;entryDy=0;strokeColor=#000000;strokeWidth=1;fontFamily=Helvetica;fontSize=14;fontColor=#000000;endArrow=classic;endFill=1;" parent="qSxPUbyXWgn4yMtCygqy-591" source="qSxPUbyXWgn4yMtCygqy-643" target="qSxPUbyXWgn4yMtCygqy-612" edge="1">
                    <mxGeometry relative="1" as="geometry"/>
                </mxCell>
                <mxCell id="qSxPUbyXWgn4yMtCygqy-643" value="getUserById" style="rounded=1;whiteSpace=wrap;html=1;labelBackgroundColor=none;fontFamily=Helvetica;fontSize=14;fontColor=#000000;fillColor=none;" parent="qSxPUbyXWgn4yMtCygqy-591" vertex="1">
                    <mxGeometry x="950" y="330" width="120" height="40" as="geometry"/>
                </mxCell>
                <mxCell id="qSxPUbyXWgn4yMtCygqy-670" style="edgeStyle=orthogonalEdgeStyle;html=1;strokeColor=#000000;strokeWidth=1;fontFamily=Helvetica;fontSize=20;fontColor=#000000;endArrow=classic;endFill=1;exitX=0.75;exitY=1;exitDx=0;exitDy=0;entryX=0;entryY=0.5;entryDx=0;entryDy=0;" parent="qSxPUbyXWgn4yMtCygqy-591" source="qSxPUbyXWgn4yMtCygqy-645" target="qSxPUbyXWgn4yMtCygqy-626" edge="1">
                    <mxGeometry relative="1" as="geometry"/>
                </mxCell>
                <mxCell id="qSxPUbyXWgn4yMtCygqy-645" value="executeChangePasswordByReset" style="rounded=1;whiteSpace=wrap;html=1;labelBackgroundColor=none;fontFamily=Helvetica;fontSize=14;fontColor=#000000;fillColor=none;" parent="qSxPUbyXWgn4yMtCygqy-591" vertex="1">
                    <mxGeometry x="920" y="430" width="240" height="40" as="geometry"/>
                </mxCell>
                <mxCell id="qSxPUbyXWgn4yMtCygqy-656" style="edgeStyle=orthogonalEdgeStyle;html=1;entryX=0;entryY=0.5;entryDx=0;entryDy=0;strokeColor=#000000;strokeWidth=1;fontFamily=Helvetica;fontSize=20;fontColor=#000000;endArrow=classic;endFill=1;" parent="qSxPUbyXWgn4yMtCygqy-591" source="qSxPUbyXWgn4yMtCygqy-647" target="qSxPUbyXWgn4yMtCygqy-652" edge="1">
                    <mxGeometry relative="1" as="geometry"/>
                </mxCell>
                <mxCell id="qSxPUbyXWgn4yMtCygqy-663" style="edgeStyle=orthogonalEdgeStyle;html=1;entryX=0.5;entryY=0;entryDx=0;entryDy=0;strokeColor=#000000;strokeWidth=1;fontFamily=Helvetica;fontSize=20;fontColor=#000000;endArrow=classic;endFill=1;" parent="qSxPUbyXWgn4yMtCygqy-591" source="qSxPUbyXWgn4yMtCygqy-647" target="qSxPUbyXWgn4yMtCygqy-607" edge="1">
                    <mxGeometry relative="1" as="geometry"/>
                </mxCell>
                <mxCell id="qSxPUbyXWgn4yMtCygqy-647" value="verifica si hay una solicitud de reset password y está activa" style="rounded=1;whiteSpace=wrap;html=1;labelBackgroundColor=none;fontFamily=Helvetica;fontSize=14;fontColor=#000000;fillColor=none;" parent="qSxPUbyXWgn4yMtCygqy-591" vertex="1">
                    <mxGeometry x="600" y="190" width="260" height="40" as="geometry"/>
                </mxCell>
                <mxCell id="qSxPUbyXWgn4yMtCygqy-651" value="userKeyServiceImpl" style="shape=process;whiteSpace=wrap;html=1;backgroundOutline=1;labelBackgroundColor=none;strokeColor=#000000;strokeWidth=1;fontFamily=Helvetica;fontSize=20;fontColor=#000000;fillColor=none;verticalAlign=top;align=left;size=0.05263157894736842;" parent="qSxPUbyXWgn4yMtCygqy-591" vertex="1">
                    <mxGeometry x="1260" y="110" width="250" height="120" as="geometry"/>
                </mxCell>
                <mxCell id="qSxPUbyXWgn4yMtCygqy-655" style="edgeStyle=orthogonalEdgeStyle;html=1;entryX=0;entryY=0.5;entryDx=0;entryDy=0;strokeColor=#000000;strokeWidth=1;fontFamily=Helvetica;fontSize=20;fontColor=#000000;endArrow=classic;endFill=1;" parent="qSxPUbyXWgn4yMtCygqy-591" source="qSxPUbyXWgn4yMtCygqy-652" target="qSxPUbyXWgn4yMtCygqy-654" edge="1">
                    <mxGeometry relative="1" as="geometry"/>
                </mxCell>
                <mxCell id="qSxPUbyXWgn4yMtCygqy-652" value="findById" style="rounded=1;whiteSpace=wrap;html=1;labelBackgroundColor=none;fontFamily=Helvetica;fontSize=14;fillColor=none;" parent="qSxPUbyXWgn4yMtCygqy-591" vertex="1">
                    <mxGeometry x="1320" y="170" width="130" height="40" as="geometry"/>
                </mxCell>
                <mxCell id="qSxPUbyXWgn4yMtCygqy-653" value="userKeyRepository" style="shape=process;whiteSpace=wrap;html=1;backgroundOutline=1;labelBackgroundColor=none;strokeColor=#000000;strokeWidth=1;fontFamily=Helvetica;fontSize=20;fontColor=#000000;fillColor=none;verticalAlign=top;align=left;size=0.05263157894736842;" parent="qSxPUbyXWgn4yMtCygqy-591" vertex="1">
                    <mxGeometry x="1560" y="110" width="250" height="120" as="geometry"/>
                </mxCell>
                <mxCell id="qSxPUbyXWgn4yMtCygqy-674" style="edgeStyle=orthogonalEdgeStyle;html=1;entryX=0.658;entryY=-0.007;entryDx=0;entryDy=0;entryPerimeter=0;strokeColor=#000000;strokeWidth=1;fontFamily=Helvetica;fontSize=14;fontColor=#000000;endArrow=classic;endFill=1;" parent="qSxPUbyXWgn4yMtCygqy-591" source="qSxPUbyXWgn4yMtCygqy-654" target="qSxPUbyXWgn4yMtCygqy-629" edge="1">
                    <mxGeometry relative="1" as="geometry"/>
                </mxCell>
                <mxCell id="qSxPUbyXWgn4yMtCygqy-654" value="findById" style="rounded=1;whiteSpace=wrap;html=1;labelBackgroundColor=none;fontFamily=Helvetica;fontSize=14;fillColor=#d5e8d4;strokeColor=#82b366;" parent="qSxPUbyXWgn4yMtCygqy-591" vertex="1">
                    <mxGeometry x="1620" y="170" width="130" height="40" as="geometry"/>
                </mxCell>
                <mxCell id="qSxPUbyXWgn4yMtCygqy-657" value="verifyExpirationResetPassword" style="rounded=1;whiteSpace=wrap;html=1;labelBackgroundColor=none;fontFamily=Helvetica;fontSize=14;fontColor=#000000;fillColor=none;" parent="qSxPUbyXWgn4yMtCygqy-591" vertex="1">
                    <mxGeometry x="1260" y="260" width="260" height="40" as="geometry"/>
                </mxCell>
                <mxCell id="qSxPUbyXWgn4yMtCygqy-662" style="edgeStyle=orthogonalEdgeStyle;html=1;entryX=0;entryY=0.5;entryDx=0;entryDy=0;strokeColor=#000000;strokeWidth=1;fontFamily=Helvetica;fontSize=20;fontColor=#000000;endArrow=classic;endFill=1;" parent="qSxPUbyXWgn4yMtCygqy-591" source="qSxPUbyXWgn4yMtCygqy-661" target="qSxPUbyXWgn4yMtCygqy-643" edge="1">
                    <mxGeometry relative="1" as="geometry"/>
                </mxCell>
                <mxCell id="qSxPUbyXWgn4yMtCygqy-665" style="edgeStyle=orthogonalEdgeStyle;html=1;entryX=0.5;entryY=0;entryDx=0;entryDy=0;strokeColor=#000000;strokeWidth=1;fontFamily=Helvetica;fontSize=20;fontColor=#000000;endArrow=classic;endFill=1;" parent="qSxPUbyXWgn4yMtCygqy-591" source="qSxPUbyXWgn4yMtCygqy-661" target="qSxPUbyXWgn4yMtCygqy-635" edge="1">
                    <mxGeometry relative="1" as="geometry"/>
                </mxCell>
                <mxCell id="qSxPUbyXWgn4yMtCygqy-661" value="verifica si el usuario existe en la tabla user_mva" style="rounded=1;whiteSpace=wrap;html=1;labelBackgroundColor=none;fontFamily=Helvetica;fontSize=14;fontColor=#000000;fillColor=none;" parent="qSxPUbyXWgn4yMtCygqy-591" vertex="1">
                    <mxGeometry x="600" y="330" width="260" height="40" as="geometry"/>
                </mxCell>
                <mxCell id="qSxPUbyXWgn4yMtCygqy-672" value="Return ok" style="rounded=1;whiteSpace=wrap;html=1;labelBackgroundColor=none;fontFamily=Helvetica;fontSize=14;fontColor=#000000;fillColor=none;" parent="qSxPUbyXWgn4yMtCygqy-591" vertex="1">
                    <mxGeometry x="120" y="340" width="180" height="50" as="geometry"/>
                </mxCell>
                <mxCell id="qSxPUbyXWgn4yMtCygqy-678" value="Activacion de usuario" style="text;html=1;strokeColor=#001DBC;fillColor=#0050ef;align=center;verticalAlign=middle;whiteSpace=wrap;rounded=0;labelBackgroundColor=none;fontFamily=Helvetica;fontSize=35;fontColor=#ffffff;fontStyle=0" parent="1" vertex="1">
                    <mxGeometry x="670" y="30" width="470" height="50" as="geometry"/>
                </mxCell>
            </root>
        </mxGraphModel>
    </diagram>
    <diagram id="66ewWS9uh5ylAockWgDo" name="Page-1">
        <mxGraphModel dx="1617" dy="827" grid="1" gridSize="10" guides="1" tooltips="1" connect="1" arrows="1" fold="1" page="1" pageScale="1" pageWidth="850" pageHeight="1100" math="0" shadow="0">
            <root>
                <mxCell id="0"/>
                <mxCell id="1" parent="0"/>
            </root>
        </mxGraphModel>
    </diagram>
</mxfile>